<?xml version="1.0" encoding="UTF-8"?>
<svg width="27px" height="31px" viewBox="0 0 27 31" version="1.1" xmlns="http://www.w3.org/2000/svg" xmlns:xlink="http://www.w3.org/1999/xlink">
    <!-- Generator: sketchtool 46.1 (44463) - http://www.bohemiancoding.com/sketch -->
    <title>0458CC59-BFD1-4519-82BA-ADBBE3D51D34</title>
    <desc>Created with sketchtool.</desc>
    <defs></defs>
    <g id="Page-2" stroke="none" stroke-width="1" fill="none" fill-rule="evenodd">
        <g id="Landing-page-1" transform="translate(-551.000000, -2646.000000)" fill-rule="nonzero" fill="#4FC3F7">
            <g id="Создать-магазин" transform="translate(0.000000, 2379.000000)">
                <g id="Group-24" transform="translate(130.000000, 218.000000)">
                    <g id="2" transform="translate(400.000000, 0.000000)">
                        <g id="Group-20">
                            <g id="5-copy" transform="translate(0.000000, 30.000000)">
                                <g id="shopping-48px-outline_receipt-list-43" transform="translate(20.909091, 19.090909)">
                                    <g id="Group" transform="translate(0.336287, 0.336287)">
                                        <path d="M2.35400685,27.7081567 L4.8209722,26.0635131 C5.15984771,25.8375961 5.60132647,25.8375961 5.94020197,26.0635131 L9.4160274,28.3807301 L12.8918528,26.0635131 C13.2307283,25.8375961 13.6722071,25.8375961 14.0110826,26.0635131 L17.486908,28.3807301 L20.9627335,26.0635131 C21.301609,25.8375961 21.7430877,25.8375961 22.0819632,26.0635131 L24.5489286,27.7081567 L24.5489286,2.35400685 L2.35400685,2.35400685 L2.35400685,27.7081567 Z M1.90476166,30.4326513 C1.23431892,30.8796131 0.336286693,30.3990009 0.336286693,29.593229 L0.336286693,1.34514677 C0.336286693,0.787968736 0.787968736,0.336286693 1.34514677,0.336286693 L25.5577887,0.336286693 C26.1149667,0.336286693 26.5666487,0.787968736 26.5666487,1.34514677 L26.5666487,29.593229 C26.5666487,30.3990009 25.6686165,30.8796131 24.9981738,30.4326513 L21.5223484,28.1154344 L18.0465229,30.4326513 C17.7076474,30.6585683 17.2661687,30.6585683 16.9272932,30.4326513 L13.4514677,28.1154344 L9.97564229,30.4326513 C9.63676678,30.6585683 9.19528803,30.6585683 8.85641252,30.4326513 L5.38058709,28.1154344 L1.90476166,30.4326513 Z" id="Shape"></path>
                                        <path d="M6.72573386,10.4248875 L13.4514677,10.4248875 C14.0086458,10.4248875 14.4603278,9.97320544 14.4603278,9.4160274 C14.4603278,8.85884937 14.0086458,8.40716733 13.4514677,8.40716733 L6.72573386,8.40716733 C6.16855582,8.40716733 5.71687378,8.85884937 5.71687378,9.4160274 C5.71687378,9.97320544 6.16855582,10.4248875 6.72573386,10.4248875 Z" id="Shape"></path>
                                        <path d="M18.8320548,10.4248875 L20.1772016,10.4248875 C20.7343796,10.4248875 21.1860617,9.97320544 21.1860617,9.4160274 C21.1860617,8.85884937 20.7343796,8.40716733 20.1772016,8.40716733 L18.8320548,8.40716733 C18.2748768,8.40716733 17.8231947,8.85884937 17.8231947,9.4160274 C17.8231947,9.97320544 18.2748768,10.4248875 18.8320548,10.4248875 Z" id="Shape"></path>
                                        <path d="M6.72573386,15.8054746 L13.4514677,15.8054746 C14.0086458,15.8054746 14.4603278,15.3537925 14.4603278,14.7966145 C14.4603278,14.2394365 14.0086458,13.7877544 13.4514677,13.7877544 L6.72573386,13.7877544 C6.16855582,13.7877544 5.71687378,14.2394365 5.71687378,14.7966145 C5.71687378,15.3537925 6.16855582,15.8054746 6.72573386,15.8054746 Z" id="Shape"></path>
                                        <path d="M18.8320548,15.8054746 L20.1772016,15.8054746 C20.7343796,15.8054746 21.1860617,15.3537925 21.1860617,14.7966145 C21.1860617,14.2394365 20.7343796,13.7877544 20.1772016,13.7877544 L18.8320548,13.7877544 C18.2748768,13.7877544 17.8231947,14.2394365 17.8231947,14.7966145 C17.8231947,15.3537925 18.2748768,15.8054746 18.8320548,15.8054746 Z" id="Shape"></path>
                                        <path d="M6.72573386,21.1860617 L13.4514677,21.1860617 C14.0086458,21.1860617 14.4603278,20.7343796 14.4603278,20.1772016 C14.4603278,19.6200235 14.0086458,19.1683415 13.4514677,19.1683415 L6.72573386,19.1683415 C6.16855582,19.1683415 5.71687378,19.6200235 5.71687378,20.1772016 C5.71687378,20.7343796 6.16855582,21.1860617 6.72573386,21.1860617 Z" id="Shape"></path>
                                        <path d="M18.8320548,21.1860617 L20.1772016,21.1860617 C20.7343796,21.1860617 21.1860617,20.7343796 21.1860617,20.1772016 C21.1860617,19.6200235 20.7343796,19.1683415 20.1772016,19.1683415 L18.8320548,19.1683415 C18.2748768,19.1683415 17.8231947,19.6200235 17.8231947,20.1772016 C17.8231947,20.7343796 18.2748768,21.1860617 18.8320548,21.1860617 Z" id="Shape"></path>
                                    </g>
                                </g>
                            </g>
                        </g>
                    </g>
                </g>
            </g>
        </g>
    </g>
</svg>