<?xml version="1.0" encoding="UTF-8"?>
<svg width="32px" height="32px" viewBox="0 0 32 32" version="1.1" xmlns="http://www.w3.org/2000/svg" xmlns:xlink="http://www.w3.org/1999/xlink">
    <!-- Generator: sketchtool 46.1 (44463) - http://www.bohemiancoding.com/sketch -->
    <title>5BC775D0-6E1E-4482-BF04-3B930EEE32FA</title>
    <desc>Created with sketchtool.</desc>
    <defs></defs>
    <g id="Page-2" stroke="none" stroke-width="1" fill="none" fill-rule="evenodd">
        <g id="Landing-page-1" transform="translate(-149.000000, -2646.000000)" fill-rule="nonzero" stroke="#4FC3F7">
            <g id="Создать-магазин" transform="translate(0.000000, 2379.000000)">
                <g id="Group-24" transform="translate(130.000000, 218.000000)">
                    <g id="1">
                        <g id="Group-19">
                            <g id="Group" transform="translate(19.601228, 49.935236)">
                                <path d="M29.4656759,23.6610225 L24.9035321,19.095741 C24.4424612,18.6464741 23.8215162,18.399225 23.1778243,18.4085955 C22.4891962,18.4067962 21.8275465,18.6761902 21.3360234,19.158494 L19.1177045,21.3768129 L18.7600124,21.1791409 C16.7407688,20.1380687 14.8897359,18.7989786 13.269124,17.2068754 C11.6706555,15.5798244 10.3262695,13.7213773 9.28117019,11.6940234 L9.09918647,11.3582948 L11.320643,9.13997592 C12.3200786,8.1666355 12.3467032,6.56915944 11.3802584,5.56305435 L6.8087016,1.00404816 C6.34872272,0.552741514 5.72732794,0.304183603 5.08299382,0.313765051 C4.39168268,0.310806372 3.72728853,0.581527246 3.23491767,1.06680117 L2.11477644,2.19635535 C2.08838247,2.22281504 2.06521197,2.25230478 2.04574813,2.28420957 L1.95475626,2.43481679 C1.51213754,3.00888643 1.15297695,3.64269923 0.887955093,4.3174071 C0.647497553,4.93790143 0.486206278,5.5862291 0.407894566,6.24706216 C-0.200809632,11.2955418 2.09595054,15.9016128 8.33046209,22.1361243 C15.7102161,29.5158783 21.9290394,30.0869307 23.6578848,30.0869307 C23.8474384,30.0891451 24.0369832,30.0818147 24.2257996,30.0649671 C24.8891709,29.9841117 25.5396464,29.8196478 26.1617299,29.5754937 C26.8438228,29.3103818 27.4833785,28.9467336 28.0600085,28.4961419 L28.3172958,28.2953323 L28.3549476,28.2608181 L29.4060605,27.2285311 C30.4043945,26.258437 30.4310397,24.6639312 29.4656759,23.6610225 L29.4656759,23.6610225 Z M28.7471539,26.5633492 L27.7180046,27.5736726 L27.4826808,27.758794 C26.9782612,28.1518067 26.4190705,28.4689281 25.8228637,28.7000892 C25.2763319,28.9143353 24.70495,29.0587621 24.1222571,29.1299473 C24.1065688,29.1299473 23.9465487,29.1487732 23.6578848,29.1487732 C22.0200312,29.1487732 16.1275236,28.5965467 8.995644,21.4740801 C2.99018093,15.4654793 0.771862024,11.0884569 1.34291442,6.35687992 C1.41174953,5.77675962 1.55299798,5.20754942 1.76335958,4.66254865 C1.99566803,4.0630098 2.31265173,3.49983542 2.70465474,2.99018093 L2.73603124,2.94625382 L2.82388545,2.82388545 L3.90637488,1.73512073 C4.219947,1.42622696 4.64283367,1.2536892 5.08299382,1.2550602 C5.47762928,1.2459389 5.85951224,1.39507662 6.14351969,1.66923007 L10.7056635,6.22823625 C11.3030915,6.8663439 11.2765225,7.86617829 10.6460482,8.47165636 L8.15789131,10.9472626 C8.00770201,11.0964556 7.97560363,11.327564 8.07945005,11.5120397 L8.44341751,12.1395698 C9.53009584,14.2533844 10.9307373,16.1903742 12.5976668,17.8846079 C14.2804547,19.5354048 16.2024047,20.923186 18.2987777,22.0012053 L18.9670973,22.3714481 C19.1534241,22.4681346 19.381256,22.4297359 19.5255991,22.2773186 L21.99493,19.8079876 C22.3104798,19.5009133 22.7343983,19.3306694 23.1746866,19.3342024 C23.5729134,19.3303023 23.9560684,19.4862769 24.2383502,19.7671982 L28.7973563,24.329342 L28.7973563,24.329342 C29.0843211,24.6168492 29.2417976,25.0088408 29.2334898,25.4149691 C29.2266444,25.8470127 29.0509524,26.2592131 28.7440163,26.5633492 L28.7471539,26.5633492 Z" id="Shape" fill="#4FC3F7"></path>
                                <path d="M17.1284341,3.4357273 C22.5841284,3.44264201 27.0051185,7.86363207 27.0120332,13.3193264 C27.0120332,13.5792579 27.2227493,13.789974 27.4826808,13.789974 C27.7426123,13.789974 27.9533284,13.5792579 27.9533284,13.3193264 C27.9464122,7.3437695 23.103991,2.50134831 17.1284341,2.49443215 C16.8685026,2.49443215 16.6577865,2.70514825 16.6577865,2.96507973 C16.6577865,3.22501121 16.8685026,3.4357273 17.1284341,3.4357273 L17.1284341,3.4357273 Z" id="Shape" fill="#FF7043"></path>
                                <path d="M16.187139,7.82843801 C19.738102,7.8318973 22.6158632,10.7096585 22.6193225,14.2606215 C22.6193225,14.520553 22.8300386,14.7312691 23.0899701,14.7312691 C23.3499015,14.7312691 23.5606176,14.520553 23.5606176,14.2606215 C23.5554317,10.1905117 20.2572488,6.89232882 16.187139,6.88714286 C15.9272075,6.88714286 15.7164914,7.09785896 15.7164914,7.35779043 C15.7164914,7.61772191 15.9272075,7.82843801 16.187139,7.82843801 L16.187139,7.82843801 Z" id="Shape" fill="#FF7043"></path>
                            </g>
                        </g>
                    </g>
                </g>
            </g>
        </g>
    </g>
</svg>