<?xml version="1.0" encoding="UTF-8"?>
<svg width="26px" height="31px" viewBox="0 0 26 31" version="1.1" xmlns="http://www.w3.org/2000/svg" xmlns:xlink="http://www.w3.org/1999/xlink">
    <!-- Generator: sketchtool 46.1 (44463) - http://www.bohemiancoding.com/sketch -->
    <title>DF52237D-A524-4598-9719-C91CC6DAE37D</title>
    <desc>Created with sketchtool.</desc>
    <defs></defs>
    <g id="Page-2" stroke="none" stroke-width="1" fill="none" fill-rule="evenodd">
        <g id="Landing-page-1" transform="translate(-952.000000, -2646.000000)" fill-rule="nonzero" fill="#4FC3F7">
            <g id="Создать-магазин" transform="translate(0.000000, 2379.000000)">
                <g id="Group-24" transform="translate(130.000000, 218.000000)">
                    <g id="3" transform="translate(800.000000, 0.000000)">
                        <g id="Group-21">
                            <g id="5-copy-2" transform="translate(0.000000, 30.000000)">
                                <g id="noun_704705_cc" transform="translate(21.894241, 19.682219)">
                                    <path d="M6.64246218,6.58003946 C6.64246218,5.94177445 7.02694375,5.36635712 7.61662373,5.12210368 C8.20630371,4.87785023 8.88505473,5.0128622 9.33637625,5.46418372 C9.78769776,5.91550524 9.92270974,6.59425626 9.67845629,7.18393624 C9.43420284,7.77361622 8.85878552,8.15809778 8.22052051,8.15809778 C7.34898296,8.15809778 6.64246218,7.45157701 6.64246218,6.58003946 Z M4.82436119,12.2610494 C4.91771112,12.3055018 5.00661581,12.3588446 5.09996574,12.3988517 C5.71452239,12.6413441 6.36170594,12.7911552 7.02030713,12.8433752 C7.63017867,12.9059434 8.24400405,12.920806 8.85618907,12.8878275 C9.40139951,12.865527 9.94322458,12.7911005 10.4742545,12.6655658 C10.8584139,12.5787687 11.230241,12.4443733 11.5811179,12.2654947 C11.6744679,12.2165971 11.6833583,12.2032614 11.6789131,12.0743496 C11.6789131,11.798745 11.6566869,11.1052884 11.6344608,10.8296838 C11.6138337,10.5356515 11.5601525,10.2448782 11.4744323,9.96286308 C11.4258273,9.72546364 11.2575558,9.53026876 11.0299088,9.44721585 C10.7098519,9.34942069 10.389795,9.23828982 10.0741834,9.13604942 L9.22069832,8.89600675 C9.14068409,8.86933534 9.14068409,8.89600675 9.11845792,8.97157574 C8.98510088,9.63391571 8.82062719,10.3051461 8.63837257,10.927479 L8.59392022,11.0697265 L8.59392022,11.0297194 C8.55391311,10.6340935 8.513906,10.2384676 8.46945365,9.84284174 C8.45410137,9.74032568 8.46796766,9.63555819 8.50946076,9.54056578 C8.53186934,9.49144627 8.55117004,9.44096753 8.56724881,9.3894278 C8.60212225,9.28963229 8.56339403,9.17898022 8.47389888,9.12271372 C8.3094252,9.12271372 8.14495152,9.12271372 7.98047783,9.12271372 C7.9606908,9.1261748 7.94309598,9.13737151 7.93158025,9.15383036 C7.87577553,9.23115646 7.86242327,9.33129837 7.89601837,9.42054444 C7.91824455,9.48277773 7.94047072,9.54501101 7.96714213,9.6072443 C7.98473788,9.67125386 7.98473788,9.73882507 7.96714213,9.80283463 C7.93602548,10.0873296 7.90935408,10.3762699 7.87823743,10.6607649 L7.83823032,11.0519456 L7.83823032,11.0519456 C7.62930429,10.3451533 7.44704967,9.62502524 7.30480216,8.88711628 C7.26779913,8.88466362 7.23067431,8.88466362 7.19367129,8.88711628 L5.39335123,9.46499679 C5.21175187,9.5269264 5.07110231,9.67254007 5.01550628,9.85617744 C4.94950018,10.0474064 4.89895839,10.2436275 4.8643683,10.4429484 C4.80351561,11.0069083 4.77383557,11.573797 4.77546361,12.1410281 C4.76568884,12.1872699 4.78505449,12.2348038 4.82436119,12.2610494 Z M25.2724408,1.51691713 L25.2724408,28.7261988 C25.2700005,29.5034319 24.6405346,30.1328979 23.8633014,30.1353382 L1.68602548,30.1353382 C0.908792336,30.1328979 0.279326392,29.5034319 0.276886082,28.7261988 L0.276886082,1.5124719 C0.279326392,0.735238747 0.908792336,0.105772803 1.68602548,0.103332493 L23.8677467,0.103332493 C24.6449798,0.105772803 25.2744458,0.735238747 25.2768861,1.5124719 L25.2724408,1.51691713 Z M23.494347,1.88587161 L2.05497997,1.88587161 L2.05497997,28.3572443 L23.4987922,28.3572443 L23.4987922,1.88142638 L23.494347,1.88587161 Z M14.9194892,7.22015326 L19.9559401,7.22015326 C20.4469472,7.22015326 20.8449871,6.82211339 20.8449871,6.33110632 C20.8449871,5.84009925 20.4469472,5.44205938 19.9559401,5.44205938 L14.9239344,5.44205938 C14.5921159,5.41855216 14.2749339,5.58225138 14.1018641,5.86633406 C13.9287942,6.15041674 13.9287942,6.50735067 14.1018641,6.79143334 C14.2749339,7.07551602 14.5921159,7.23921524 14.9239344,7.21570803 L14.9194892,7.22015326 Z M14.9194892,10.625203 L19.9559401,10.625203 C20.4469472,10.625203 20.8449871,10.2271632 20.8449871,9.73615611 C20.8449871,9.24514904 20.4469472,8.84710916 19.9559401,8.84710916 L14.9239344,8.84710916 C14.4584734,8.88008409 14.0977133,9.26730588 14.0977133,9.73393349 C14.0977133,10.2005611 14.4584734,10.5877829 14.9239344,10.6207578 L14.9194892,10.625203 Z M5.17997997,16.9774434 L20.3737922,16.9774434 C20.8647993,16.9774434 21.2628391,16.5794036 21.2628391,16.0883965 C21.2628391,15.5973894 20.8647993,15.1993496 20.3737922,15.1993496 L5.17997997,15.1993496 C4.6889729,15.1993496 4.29093302,15.5973894 4.29093302,16.0883965 C4.29093302,16.5794036 4.6889729,16.9774434 5.17997997,16.9774434 Z M5.17997997,20.8581333 L20.3737922,20.8581333 C20.8647993,20.8581333 21.2628391,20.4600935 21.2628391,19.9690864 C21.2628391,19.4780793 20.8647993,19.0800395 20.3737922,19.0800395 L5.17997997,19.0800395 C4.68774538,19.0800395 4.28871041,19.4790744 4.28871041,19.971309 C4.28871041,20.4635436 4.68774538,20.8625786 5.17997997,20.8625786 L5.17997997,20.8581333 Z M5.17997997,24.7388232 L20.3737922,24.7388232 C20.8647993,24.7388232 21.2628391,24.3407834 21.2628391,23.8497763 C21.2628391,23.3587692 20.8647993,22.9607294 20.3737922,22.9607294 L5.17997997,22.9607294 C4.68774538,22.9607294 4.28871041,23.3597643 4.28871041,23.8519989 C4.28871041,24.3442335 4.68774538,24.7432685 5.17997997,24.7432685 L5.17997997,24.7388232 Z" id="Shape"></path>
                                </g>
                            </g>
                        </g>
                    </g>
                </g>
            </g>
        </g>
    </g>
</svg>