<?xml version="1.0" encoding="UTF-8"?>
<svg width="237px" height="50px" viewBox="0 0 237 50" version="1.1" xmlns="http://www.w3.org/2000/svg" xmlns:xlink="http://www.w3.org/1999/xlink">
    <!-- Generator: sketchtool 46.1 (44463) - http://www.bohemiancoding.com/sketch -->
    <title>10B153C1-2F1F-4526-BFC1-4042DAD2BB43</title>
    <desc>Created with sketchtool.</desc>
    <defs></defs>
    <g id="Page-2" stroke="none" stroke-width="1" fill="none" fill-rule="evenodd">
        <g id="Landing-page-1" transform="translate(-65.000000, -74.000000)" fill="#FFFFFF">
            <g id="Logo" transform="translate(65.000000, 74.000000)">
                <path d="M21.9830888,36.27262 C22.0202854,36.5323741 22.0388835,36.7457403 22.0388835,36.912725 C22.0388835,37.0797098 21.8343052,37.2374153 21.4251424,37.3858462 C20.0488677,37.7940311 18.6726136,38.0537813 17.2963389,38.1651045 C15.9200642,38.2764277 14.7483885,38.3320884 13.7812765,38.3320884 C10.5823677,38.3320884 8.29481028,37.6548826 6.91853557,36.3004506 C5.54226086,34.9460187 4.85413383,32.9515084 4.85413383,30.3168599 L4.85413383,14.4533869 L0.948508909,14.4533869 C0.539346157,14.4533869 0.278973767,14.3513422 0.167383925,14.1472497 C0.0557940838,13.9431572 0,13.6926838 0,13.395822 L0,10.3901113 C0,10.0190341 0.0464950698,9.7685607 0.139486604,9.63868366 C0.232478139,9.50880662 0.483551516,9.38820833 0.892714267,9.27688515 L5.02151775,8.3306429 L5.41208025,3.09847986 C5.44927686,2.65318716 5.57016404,2.33777623 5.77474542,2.15223761 C5.97932679,1.96669898 6.28619425,1.81827031 6.69535701,1.70694714 L11.828464,0.0371078691 C12.1632336,-0.0371075805 12.432905,-4.12305584e-07 12.6374863,0.148430487 C12.8420677,0.296861386 12.9443569,0.593718732 12.9443569,1.03901143 L12.9443569,8.49762683 L19.0817675,8.49762683 C19.4909302,8.49762683 19.7420036,8.58111795 19.8349951,8.74810272 C19.9279867,8.91508748 19.9744817,9.14700728 19.9744817,9.44386908 L19.9744817,13.395822 C19.9744817,13.7668993 19.9372857,14.0359262 19.8628924,14.202911 C19.7884992,14.3698958 19.5281268,14.4533869 19.0817675,14.4533869 L12.9443569,14.4533869 L12.9443569,28.5913593 C12.9443569,29.6674834 13.2140283,30.4096267 13.7533792,30.8178117 C14.2927301,31.2259967 15.1017443,31.4300861 16.1804461,31.4300861 C16.4408224,31.4300861 16.7569889,31.4115325 17.128955,31.3744248 C17.5009211,31.3373171 17.8821807,31.3002099 18.2727452,31.2631022 C18.6633096,31.2259945 19.0445692,31.1888873 19.4165353,31.1517796 C19.7885015,31.1146718 20.1046679,31.0775647 20.3650442,31.0404569 C20.96019,30.9291338 21.2763565,31.1146696 21.3135531,31.59707 L21.9830888,36.27262 Z M51.9783432,34.1018289 C51.9783432,34.5842294 51.9132501,34.9924082 51.7830619,35.3263777 C51.6528738,35.6603473 51.3274083,35.9757582 50.8066557,36.27262 C49.9511336,36.680805 49.0305312,37.0147695 48.0448209,37.2745235 C47.0591107,37.5342776 46.0548172,37.738367 45.0319103,37.8867979 C44.0090034,38.0352288 42.9768129,38.1465503 41.9353077,38.2207658 C40.8938025,38.2949812 39.908107,38.3320884 38.9781917,38.3320884 C36.4488219,38.3320884 34.3565438,38.0908918 32.7012945,37.6084914 C31.0460452,37.126091 29.7162862,36.4674387 28.7119776,35.6325149 C27.707669,34.7975911 27.000944,33.8142512 26.5917812,32.6824656 C26.1826185,31.5506799 25.9780402,30.3354202 25.9780402,29.0366498 C25.9780402,27.5894486 26.2198145,26.2628673 26.7033705,25.0568662 C27.1869265,23.8508652 27.9122496,22.8025877 28.8793615,21.9120023 C29.8464735,21.0214169 31.0646443,20.3256575 32.5339106,19.8247032 C34.0031768,19.3237489 35.7420924,19.0732755 37.7507096,19.0732755 L43.8881201,19.0732755 L43.8881201,18.1826946 C43.8881201,17.6631864 43.8323261,17.1622397 43.7207362,16.6798392 C43.6091464,16.1974388 43.376671,15.7799832 43.0233032,15.4274598 C42.6699354,15.0749364 42.1770876,14.7873558 41.5447452,14.5647095 C40.9124028,14.3420632 40.0754915,14.2307416 39.0339863,14.2307416 C38.4760371,14.2307416 37.8437042,14.258572 37.1369685,14.3142336 C36.4302328,14.3698952 35.7235078,14.4441095 35.0167721,14.5368788 C34.3100364,14.6296482 33.6219094,14.7409697 32.9523704,14.8708467 C32.2828313,15.0007237 31.6876944,15.1398756 31.1669418,15.2883065 C30.6833859,15.3996297 30.3486213,15.3996297 30.1626383,15.2883065 C29.9766552,15.1769833 29.846469,14.9357867 29.7720758,14.5647095 L28.8793615,10.6684179 C28.7677717,10.2602329 28.7584727,9.97265235 28.8514642,9.80566759 C28.9444557,9.63868282 29.139735,9.49953094 29.4373079,9.38820777 C31.1111556,8.79448417 32.8686692,8.36775174 34.7099016,8.10799766 C36.551134,7.84824359 38.3830397,7.7183685 40.2056738,7.7183685 C44.2601047,7.7183685 47.2357892,8.58111016 49.1328165,10.3066194 C51.0298438,12.0321286 51.9783432,14.5832464 51.9783432,17.9600493 L51.9783432,34.1018289 Z M44.0224121,24.4724225 L39.6146354,24.4724225 C39.0938828,24.4724225 38.5359419,24.5095297 37.9407961,24.5837451 C37.3456503,24.6579606 36.7970085,24.8342196 36.2948542,25.1125275 C35.7926999,25.3908355 35.3742443,25.7897375 35.0394748,26.3092457 C34.7047052,26.8287538 34.537323,27.53379 34.537323,28.4243754 C34.537323,29.7231458 34.9743766,30.6322714 35.8484971,31.1517796 C36.7226175,31.6712877 37.9035923,31.9310379 39.3914568,31.9310379 C39.6146365,31.9310379 39.9122049,31.9217611 40.2841711,31.9032072 C40.6561372,31.8846534 41.0559948,31.8475462 41.4837559,31.7918846 C41.9115169,31.736223 42.3485706,31.6620087 42.79493,31.5692394 C43.2412893,31.4764701 43.6504459,31.3558718 44.0224121,31.2074409 L44.0224121,24.4724225 Z M65.7483508,48.1284788 C65.7483508,48.5366638 65.6832577,48.7964139 65.5530696,48.9077371 C65.4228814,49.0190603 65.0974159,49.074721 64.5766633,49.074721 L58.7740206,49.074721 C58.3648579,49.074721 58.0672894,49.0190603 57.8813063,48.9077371 C57.6953233,48.7964139 57.6023331,48.5366638 57.6023331,48.1284788 L57.6023331,11.8373054 C57.6023331,11.4291204 57.6674262,11.1044327 57.7976144,10.8632325 C57.9278025,10.6220322 58.23467,10.3715589 58.718226,10.1118048 C60.5036634,9.29543484 62.5029514,8.72027373 64.71615,8.38630421 C66.9293485,8.05233468 69.0402246,7.88535243 71.0488418,7.88535243 C73.6898014,7.88535243 75.9122657,8.28425449 77.7163015,9.08207057 C79.5203372,9.87988665 80.9709834,10.9559945 82.0682835,12.3104265 C83.1655836,13.6648584 83.9559998,15.2697435 84.4395558,17.1251297 C84.9231118,18.980516 85.1648861,20.9657495 85.1648861,23.0808898 C85.1648861,25.1589224 84.9045137,27.1163255 84.3837612,28.9531579 C83.8630086,30.7899902 83.0632934,32.3948753 81.9845916,33.7678611 C80.9058898,35.1408469 79.5389347,36.2262316 77.8836854,37.0240477 C76.2284361,37.8218637 74.2849422,38.2207658 72.0531453,38.2207658 C70.9372469,38.2207658 69.9050564,38.1743818 68.9565427,38.0816125 C68.0080291,37.9888432 66.9386425,37.8125842 65.7483508,37.5528301 L65.7483508,48.1284788 Z M76.6841006,22.9139058 C76.6841006,21.3924891 76.5353164,20.1122918 76.2377435,19.0732755 C75.9401706,18.0342592 75.5031169,17.1993479 74.9265694,16.5685166 C74.3500219,15.9376853 73.6432968,15.4923993 72.806373,15.2326452 C71.9694492,14.9728911 71.0302488,14.843016 69.9887436,14.843016 C69.467991,14.843016 68.789163,14.8986768 67.9522392,15.01 C67.1153154,15.1213231 66.3806933,15.2697518 65.7483508,15.4552904 L65.7483508,30.6508278 C66.7154628,30.9105819 67.5802711,31.0775641 68.3428017,31.1517796 C69.1053322,31.225995 69.7841603,31.2631022 70.3793061,31.2631022 C72.2391368,31.2631022 73.7548761,30.6322803 74.9265694,29.3706177 C76.0982627,28.108955 76.6841006,25.9567393 76.6841006,22.9139058 L76.6841006,22.9139058 Z M101.233743,33.3782319 C101.233743,34.7883255 100.740895,35.9757548 99.7551849,36.9405557 C98.7694747,37.9053565 97.5513039,38.3877497 96.1006359,38.3877497 C95.3939003,38.3877497 94.7243712,38.2578746 94.0920288,37.9981206 C93.4596864,37.7383665 92.9110446,37.3858484 92.4460869,36.9405557 C91.9811292,36.495263 91.6091687,35.9664858 91.330194,35.3542084 C91.0512194,34.7419309 90.9117342,34.0832787 90.9117342,33.3782319 C90.9117342,32.6731851 91.0512194,32.0145329 91.330194,31.4022555 C91.6091687,30.789978 91.9811292,30.2612008 92.4460869,29.8159081 C92.9110446,29.3706154 93.4596864,29.0180973 94.0920288,28.7583433 C94.7243712,28.4985892 95.3939003,28.3687141 96.1006359,28.3687141 C97.5513039,28.3687141 98.7694747,28.8511073 99.7551849,29.8159081 C100.740895,30.780709 101.233743,31.9681384 101.233743,33.3782319 L101.233743,33.3782319 Z M132.81351,34.1018289 C132.81351,34.5842294 132.748417,34.9924082 132.618229,35.3263777 C132.488041,35.6603473 132.162575,35.9757582 131.641823,36.27262 C130.786301,36.680805 129.865698,37.0147695 128.879988,37.2745235 C127.894278,37.5342776 126.889984,37.738367 125.867077,37.8867979 C124.84417,38.0352288 123.81198,38.1465503 122.770475,38.2207658 C121.728969,38.2949812 120.743274,38.3320884 119.813359,38.3320884 C117.283989,38.3320884 115.191711,38.0908918 113.536461,37.6084914 C111.881212,37.126091 110.551453,36.4674387 109.547145,35.6325149 C108.542836,34.7975911 107.836111,33.8142512 107.426948,32.6824656 C107.017785,31.5506799 106.813207,30.3354202 106.813207,29.0366498 C106.813207,27.5894486 107.054981,26.2628673 107.538537,25.0568662 C108.022093,23.8508652 108.747417,22.8025877 109.714528,21.9120023 C110.68164,21.0214169 111.899811,20.3256575 113.369078,19.8247032 C114.838344,19.3237489 116.577259,19.0732755 118.585877,19.0732755 L124.723287,19.0732755 L124.723287,18.1826946 C124.723287,17.6631864 124.667493,17.1622397 124.555903,16.6798392 C124.444313,16.1974388 124.211838,15.7799832 123.85847,15.4274598 C123.505102,15.0749364 123.012255,14.7873558 122.379912,14.5647095 C121.74757,14.3420632 120.910658,14.2307416 119.869153,14.2307416 C119.311204,14.2307416 118.678871,14.258572 117.972135,14.3142336 C117.2654,14.3698952 116.558675,14.4441095 115.851939,14.5368788 C115.145203,14.6296482 114.457076,14.7409697 113.787537,14.8708467 C113.117998,15.0007237 112.522861,15.1398756 112.002109,15.2883065 C111.518553,15.3996297 111.183788,15.3996297 110.997805,15.2883065 C110.811822,15.1769833 110.681636,14.9357867 110.607243,14.5647095 L109.714528,10.6684179 C109.602939,10.2602329 109.59364,9.97265235 109.686631,9.80566759 C109.779623,9.63868282 109.974902,9.49953094 110.272475,9.38820777 C111.946323,8.79448417 113.703836,8.36775174 115.545069,8.10799766 C117.386301,7.84824359 119.218207,7.7183685 121.040841,7.7183685 C125.095272,7.7183685 128.070956,8.58111016 129.967983,10.3066194 C131.865011,12.0321286 132.81351,14.5832464 132.81351,17.9600493 L132.81351,34.1018289 Z M124.667492,24.4724225 L120.259716,24.4724225 C119.738963,24.4724225 119.181022,24.5095297 118.585877,24.5837451 C117.990731,24.6579606 117.442089,24.8342196 116.939935,25.1125275 C116.43778,25.3908355 116.019325,25.7897375 115.684555,26.3092457 C115.349786,26.8287538 115.182403,27.53379 115.182403,28.4243754 C115.182403,29.7231458 115.619457,30.6322714 116.493577,31.1517796 C117.367698,31.6712877 118.548673,31.9310379 120.036537,31.9310379 C120.259717,31.9310379 120.557285,31.9217611 120.929251,31.9032072 C121.301218,31.8846534 121.701075,31.8475462 122.128836,31.7918846 C122.556597,31.736223 122.993651,31.6620087 123.44001,31.5692394 C123.88637,31.4764701 124.295526,31.3558718 124.667492,31.2074409 L124.667492,24.4724225 Z M162.831027,12.672225 C162.831027,13.2288409 162.747336,13.7761716 162.579952,14.3142336 C162.412567,14.8522956 162.124297,15.3625192 161.715135,15.8449196 L148.324421,30.873473 L148.43601,31.1517796 L162.049902,31.1517796 C162.459065,31.1517796 162.738036,31.2167171 162.886822,31.3465941 C163.035608,31.4764712 163.110001,31.7454981 163.110001,32.1536831 L163.110001,36.6622491 C163.110001,37.0704341 163.044908,37.3487379 162.914719,37.4971688 C162.784531,37.6455997 162.51486,37.719814 162.105697,37.719814 L140.401581,37.719814 C139.471666,37.719814 138.792838,37.5064478 138.365077,37.079709 C137.937316,36.6529701 137.723439,36.0685322 137.723439,35.3263777 L137.723439,33.6565385 C137.723439,33.0999226 137.80713,32.5433151 137.974515,31.9866992 C138.141899,31.4300833 138.504561,30.8363686 139.06251,30.2055373 L152.397429,15.1769839 L152.28584,14.9543387 L140.122608,14.9543387 C139.676249,14.9543387 139.397278,14.8801243 139.285689,14.7316934 C139.174099,14.5832625 139.118305,14.3049588 139.118305,13.8967738 L139.118305,9.5551917 C139.118305,8.85014492 139.471667,8.49762683 140.178403,8.49762683 L160.041295,8.49762683 C160.971211,8.49762683 161.668637,8.63677871 162.133594,8.91508664 C162.598552,9.19339458 162.831027,9.79638606 162.831027,10.7240792 L162.831027,12.672225 Z" id="tap.az"></path>
                <text id="pulsuz-" font-family="SourceSansPro-Semibold, Source Sans Pro" font-size="22" font-weight="500" line-spacing="11">
                    <tspan x="170" y="30">pulsuz </tspan>
                    <tspan x="170" y="48.9000001">elanlar</tspan>
                </text>
            </g>
        </g>
    </g>
</svg>