<svg width="33" height="33" viewBox="0 0 33 33" xmlns="http://www.w3.org/2000/svg"><title>E12002B0-34A2-4DC5-A4DF-789D1FDFA113</title><defs><radialGradient cx="0%" cy="3.177%" fx="0%" fy="3.177%" r="139.193%" id="a"><stop stop-color="#4FC3F7" offset="0%"/><stop stop-color="#AB5CA4" offset="49.494%"/><stop stop-color="#FF512F" offset="100%"/></radialGradient><radialGradient cx="0%" cy="3.177%" fx="0%" fy="3.177%" r="139.193%" gradientTransform="matrix(.56309 .54521 -.36622 .8383 .012 .005)" id="b"><stop stop-color="#4FC3F7" offset="0%"/><stop stop-color="#AB5CA4" offset="49.494%"/><stop stop-color="#FF512F" offset="100%"/></radialGradient></defs><g fill="none" fill-opacity=".82"><path d="M16.5 32.794c8.992 0 16.294-7.301 16.294-16.294C32.794 7.508 25.493.206 16.5.206 7.508.206.206 7.507.206 16.5c0 8.992 7.301 16.294 16.294 16.294zm0-29.7c7.384 0 13.406 6.022 13.406 13.406S23.884 29.906 16.5 29.906 3.094 23.884 3.094 16.5 9.116 3.094 16.5 3.094z" fill="url(#a)"/><path d="M13.654 21.615c.289.289.66.413 1.031.413.371 0 .701-.124.99-.413l8.539-8.126a1.396 1.396 0 0 0 .041-2.022 1.396 1.396 0 0 0-2.021-.04l-7.549 7.136-3.919-3.92a1.444 1.444 0 0 0-2.062 0 1.444 1.444 0 0 0 0 2.063l4.95 4.909z" fill="url(#b)"/></g></svg>