<svg width="47" height="80" viewBox="0 0 47 80" xmlns="http://www.w3.org/2000/svg" xmlns:xlink="http://www.w3.org/1999/xlink"><title>06E90DD9-A90C-44E2-9FE6-FDDE3D135FAC</title><defs><radialGradient cx="0%" cy="3.177%" fx="0%" fy="3.177%" r="139.193%" gradientTransform="matrix(.51346 .49715 -.85811 .29748 .027 .022)" id="b"><stop stop-color="#4FC3F7" offset="0%"/><stop stop-color="#AB5CA4" offset="49.494%"/><stop stop-color="#FF512F" offset="100%"/></radialGradient><path d="M.328 72.418c0 1.96 1.715 4.166 2.45 4.656 3.921 1.96 9.19 2.818 12.498 2.818 15.315 0 31.12-10.537 31.12-27.323 0-10.414-8.576-21.686-23.034-21.686-3.308 0-9.557.98-12.987 2.328 1.47-6.861 2.94-14.703 4.41-22.054h10.292c6.372 0 10.782-.368 14.213-.735 2.205-2.573 3.676-7.964 3.676-8.7 0-.612-.735-.857-1.47-1.347 0 0-6.25 1.102-11.273 1.102H12.09c-1.348 7.474-4.41 22.667-7.106 36.39 0 .857.49 1.715.98 1.715 1.96-.98 7.719-1.838 10.292-1.838 14.212 0 19.603 10.66 19.603 18.256 0 14.213-7.964 18.991-14.457 18.991-3.308 0-6.739-.735-9.067-3.063-1.96-1.96-3.43-5.391-6.861-5.391-2.696 0-5.146 2.328-5.146 5.881z" id="a"/></defs><g fill="none" fill-rule="evenodd"><mask id="c" fill="#fff"><use xlink:href="#a"/></mask><use fill-opacity=".82" fill="url(#b)" xlink:href="#a"/><path fill="#FFF" opacity=".4" mask="url(#c)" d="M-24.505-7.928h74.234v98.739h-74.234z"/></g></svg>