<svg width="39" height="36" viewBox="0 0 39 36" xmlns="http://www.w3.org/2000/svg"><title>575C4E7B-E275-4EEA-8B30-4B5298CA781F</title><defs><radialGradient cx="0%" cy="3.177%" fx="0%" fy="3.177%" r="139.193%" gradientTransform="matrix(.35931 .34788 -.13333 .93754 .004 .002)" id="a"><stop stop-color="#4FC3F7" offset="0%"/><stop stop-color="#AB5CA4" offset="49.494%"/><stop stop-color="#FF512F" offset="100%"/></radialGradient><radialGradient cx="0%" cy="3.177%" fx="0%" fy="3.177%" r="139.193%" gradientTransform="matrix(.46445 .4497 -.23384 .89318 .007 .003)" id="b"><stop stop-color="#4FC3F7" offset="0%"/><stop stop-color="#AB5CA4" offset="49.494%"/><stop stop-color="#FF512F" offset="100%"/></radialGradient><radialGradient cx="0%" cy="3.177%" fx="0%" fy="3.177%" r="139.193%" gradientTransform="scale(1 .47368) rotate(63.931 -.028 .05)" id="c"><stop stop-color="#4FC3F7" offset="0%"/><stop stop-color="#AB5CA4" offset="49.494%"/><stop stop-color="#FF512F" offset="100%"/></radialGradient><radialGradient cx="0%" cy="3.177%" fx="0%" fy="3.177%" r="139.193%" id="d"><stop stop-color="#4FC3F7" offset="0%"/><stop stop-color="#AB5CA4" offset="49.494%"/><stop stop-color="#FF512F" offset="100%"/></radialGradient></defs><g fill="none" fill-opacity=".82"><path d="M19.14 33.027c-1.031.245-2.231.193-3.335-.137L7.76 29.113a1.244 1.244 0 1 0-1.057 2.252l8.125 3.814.157.06c1.57.492 3.292.568 4.818.186l.123-.037 17.576-6.384c.62-.225.956-.895.767-1.526-.173-.577-.563-1.357-1.262-2.133-1.161-1.29-2.798-2.07-4.904-2.07H23.98a1.244 1.244 0 0 0 0 2.487h8.124c1.377 0 2.351.464 3.056 1.247.045.05.088.1.13.152l-16.148 5.866z" fill="url(#a)"/><path d="M13.864 26.578a1.244 1.244 0 1 0 0 2.487H25.47c.686 0 1.243-.556 1.243-1.243 0-3.091-3.127-6.218-6.218-6.218h-4.35c-1.69-2.092-4.362-3.316-7.257-3.316H7.231a1.244 1.244 0 1 0 0 2.487H8.89c2.335 0 4.433 1.049 5.604 2.772.232.34.617.544 1.029.544h4.974c1.31 0 2.79 1.17 3.42 2.487H13.865z" fill="url(#b)"/><path d="M2.487 19.112V29.89h2.487V19.112H2.487zm-1.243-2.487h4.974c.687 0 1.244.557 1.244 1.244v13.265c0 .686-.557 1.243-1.244 1.243H1.244A1.244 1.244 0 0 1 0 31.134V17.869c0-.687.557-1.244 1.244-1.244z" fill="url(#c)"/><path d="M26.447 19.09a5.389 5.389 0 1 1 0-10.778 5.389 5.389 0 0 1 0 10.778zm0-2.487a2.902 2.902 0 1 0 0-5.803 2.902 2.902 0 0 0 0 5.803zm-11.083-5.825a5.389 5.389 0 1 1 0-10.778 5.389 5.389 0 0 1 0 10.778zm0-2.487a2.902 2.902 0 1 0 0-5.804 2.902 2.902 0 0 0 0 5.804z" fill="url(#d)"/></g></svg>