<svg width="38" height="80" viewBox="0 0 38 80" xmlns="http://www.w3.org/2000/svg" xmlns:xlink="http://www.w3.org/1999/xlink"><title>BAA00B8F-9CDC-42C6-B45B-AE8774561534</title><defs><radialGradient cx="0%" cy="3.177%" fx="0%" fy="3.177%" r="139.193%" gradientTransform="matrix(.44044 .42645 -.89778 .2092 .029 .025)" id="b"><stop stop-color="#4FC3F7" offset="0%"/><stop stop-color="#AB5CA4" offset="49.494%"/><stop stop-color="#FF512F" offset="100%"/></radialGradient><path d="M12.949 61.577c0 5.316 0 9.15-.976 11.622-.61 1.608-6.22 2.102-7.806 2.226-.61.866-.488 3.833 0 4.575 4.757-.495 11.587-.866 16.71-.866 5.123 0 11.953.371 16.71.866.488-.742.61-3.71 0-4.575-1.586-.124-7.196-.618-7.806-2.226-.976-2.473-.976-6.306-.976-11.622V13.972c0-8.037 1.098-11.623 1.098-11.623C29.78 1.731 29.17 0 28.439 0h-.244C27.83 0 14.29 6.306.263 12.365-.102 12.488.02 13.6.02 13.849c0 .741.61 1.854 1.585 2.349 2.562-1.484 7.684-2.844 8.782-2.844 1.952 0 2.562 1.113 2.562 6.553v41.67z" id="a"/></defs><g fill="none" fill-rule="evenodd"><mask id="c" fill="#fff"><use xlink:href="#a"/></mask><use fill-opacity=".82" fill="url(#b)" xlink:href="#a"/><path fill="#FFF" opacity=".4" mask="url(#c)" d="M-8-5h74V95H-8z"/></g></svg>