<svg width="38" height="31" viewBox="0 0 38 31" xmlns="http://www.w3.org/2000/svg"><title>E42138A5-C322-4997-A566-C73FBB2A603D</title><defs><radialGradient cx="0%" cy="3.177%" fx="0%" fy="3.177%" r="139.193%" gradientTransform="scale(.81579 1) rotate(38.304 0 .032)" id="a"><stop stop-color="#4FC3F7" offset="0%"/><stop stop-color="#AB5CA4" offset="49.494%"/><stop stop-color="#FF512F" offset="100%"/></radialGradient></defs><path d="M35.077 11.61c0-.799-.655-1.446-1.462-1.446H23.122c-2.824 0-5.116 2.272-5.116 5.058 0 2.787 2.292 5.06 5.116 5.06h10.493c.807 0 1.462-.648 1.462-1.446v-7.227zM30.16 23.171h-7.038c-4.438 0-8.039-3.567-8.039-7.95 0-4.382 3.601-7.949 8.039-7.949h7.038V4.336c0-.798-.66-1.445-1.461-1.445H4.385c-.807 0-1.462.647-1.462 1.445v22.328c0 .786.667 1.445 1.462 1.445h24.314c.789 0 1.461-.659 1.461-1.445v-3.492zM38 11.609v7.227c0 2.388-1.964 4.336-4.385 4.336h-.532v3.492c0 2.393-1.97 4.336-4.384 4.336H4.385C1.965 31 0 29.057 0 26.664V4.336C0 1.948 1.964 0 4.385 0h24.314c2.414 0 4.384 1.948 4.384 4.336v2.937h.532c2.42 0 4.385 1.948 4.385 4.336zm-12.786 3.613c0 1.093-.9 1.99-2.01 1.99-1.111 0-2.012-.897-2.012-1.99 0-1.092.9-1.988 2.011-1.988 1.111 0 2.011.896 2.011 1.988z" fill="url(#a)" fill-rule="evenodd" fill-opacity=".82"/></svg>