<svg width="49" height="80" viewBox="0 0 49 80" xmlns="http://www.w3.org/2000/svg" xmlns:xlink="http://www.w3.org/1999/xlink"><title>3C2C0C50-6054-4109-B7C3-AB306D5D6845</title><defs><radialGradient cx="0%" cy="3.177%" fx="0%" fy="3.177%" r="139.193%" gradientTransform="matrix(.53369 .51673 -.84568 .3261 .027 .021)" id="b"><stop stop-color="#4FC3F7" offset="0%"/><stop stop-color="#AB5CA4" offset="49.494%"/><stop stop-color="#FF512F" offset="100%"/></radialGradient><path d="M.578 51.676c0-12.341 3.993-23.715 11.616-32.064C20.784 10.174 34.457 2.672 44.62.01c1.09 0 1.452 2.783 1.452 3.509-10.164 3.267-28.192 11.01-33.637 32.428 4.235-3.51 10.164-5.445 14.278-5.445 16.94 0 22.142 14.52 22.142 23.231 0 13.552-10.769 25.29-24.562 25.29C9.653 79.022.578 64.743.578 51.675zm10.406-2.178c0 10.89 4.598 25.531 14.278 25.531 7.623 0 13.31-8.107 13.31-18.997 0-10.285-4.357-19.601-15.246-19.601-3.51 0-7.865.484-11.858 4.84-.363 2.54-.484 5.323-.484 8.227z" id="a"/></defs><g fill="none" fill-rule="evenodd"><mask id="c" fill="#fff"><use xlink:href="#a"/></mask><use fill-opacity=".82" fill="url(#b)" xlink:href="#a"/><path fill="#FFF" opacity=".4" mask="url(#c)" d="M-15.402-7.901h73.318v97.52h-73.318z"/></g></svg>