<svg width="39" height="38" viewBox="0 0 39 38" xmlns="http://www.w3.org/2000/svg"><title>72B85467-AFF1-442C-BDF4-482AF0917511</title><defs><radialGradient cx="0%" cy="3.177%" fx="0%" fy="3.177%" r="139.193%" gradientTransform="scale(.95 1) rotate(42.608 0 .032)" id="a"><stop stop-color="#4FC3F7" offset="0%"/><stop stop-color="#AB5CA4" offset="49.494%"/><stop stop-color="#FF512F" offset="100%"/></radialGradient></defs><path d="M19.5 25.996c.311 0 .623.095.874.286l7.407 5.36-2.826-8.676A1.478 1.478 0 0 1 25.5 21.3l7.395-5.366h-9.144a1.492 1.492 0 0 1-1.419-1.034L19.5 6.217 16.668 14.9a1.492 1.492 0 0 1-1.42 1.034H6.106L13.5 21.3c.527.376.749 1.052.545 1.667l-2.826 8.676 7.407-5.36c.251-.19.563-.286.874-.286M30.626 37.05c-.306 0-.617-.096-.875-.287L19.5 29.336 9.249 36.763a1.485 1.485 0 0 1-1.755 0 1.478 1.478 0 0 1-.545-1.667l3.916-12.016L.62 15.646a1.478 1.478 0 0 1-.545-1.667 1.492 1.492 0 0 1 1.419-1.033h12.665L18.08.923c.395-1.23 2.443-1.23 2.838 0l3.922 12.023h12.665c.647 0 1.222.418 1.42 1.033a1.478 1.478 0 0 1-.546 1.667L28.135 23.08l3.916 12.016a1.478 1.478 0 0 1-.545 1.667 1.476 1.476 0 0 1-.88.287" fill="url(#a)" fill-rule="evenodd" fill-opacity=".82"/></svg>