<svg width="46" height="37" viewBox="0 0 46 37" xmlns="http://www.w3.org/2000/svg"><title>907D5BCB-0B0D-4A97-997A-25242FF28299</title><defs><radialGradient cx="0%" cy="3.177%" fx="0%" fy="3.177%" r="139.193%" gradientTransform="matrix(.68748 .66564 -.7262 .63015 .023 .012)" id="a"><stop stop-color="#4FC3F7" offset="0%"/><stop stop-color="#AB5CA4" offset="49.494%"/><stop stop-color="#FF512F" offset="100%"/></radialGradient><radialGradient cx="0%" cy="3.177%" fx="0%" fy="3.177%" r="139.193%" gradientTransform="scale(.37484 1) rotate(19.947 0 .032)" id="b"><stop stop-color="#4FC3F7" offset="0%"/><stop stop-color="#AB5CA4" offset="49.494%"/><stop stop-color="#FF512F" offset="100%"/></radialGradient><radialGradient cx="0%" cy="3.177%" fx="0%" fy="3.177%" r="139.193%" gradientTransform="matrix(.71681 .69404 -.69104 .71993 .022 .009)" id="c"><stop stop-color="#4FC3F7" offset="0%"/><stop stop-color="#AB5CA4" offset="49.494%"/><stop stop-color="#FF512F" offset="100%"/></radialGradient><radialGradient cx="0%" cy="3.177%" fx="0%" fy="3.177%" r="139.193%" gradientTransform="matrix(.2679 .25939 -.96345 .07213 .03 .03)" id="d"><stop stop-color="#4FC3F7" offset="0%"/><stop stop-color="#AB5CA4" offset="49.494%"/><stop stop-color="#FF512F" offset="100%"/></radialGradient><radialGradient cx="0%" cy="3.177%" fx="0%" fy="3.177%" r="139.193%" gradientTransform="matrix(.71838 .69556 -.69547 .71847 .022 .009)" id="e"><stop stop-color="#4FC3F7" offset="0%"/><stop stop-color="#AB5CA4" offset="49.494%"/><stop stop-color="#FF512F" offset="100%"/></radialGradient><radialGradient cx="0%" cy="3.177%" fx="0%" fy="3.177%" r="139.193%" gradientTransform="scale(.18945 1) rotate(10.394 0 .032)" id="f"><stop stop-color="#4FC3F7" offset="0%"/><stop stop-color="#AB5CA4" offset="49.494%"/><stop stop-color="#FF512F" offset="100%"/></radialGradient><radialGradient cx="0%" cy="3.177%" fx="0%" fy="3.177%" r="139.193%" gradientTransform="scale(.24432 1) rotate(13.309 0 .032)" id="g"><stop stop-color="#4FC3F7" offset="0%"/><stop stop-color="#AB5CA4" offset="49.494%"/><stop stop-color="#FF512F" offset="100%"/></radialGradient><radialGradient cx="0%" cy="3.177%" fx="0%" fy="3.177%" r="139.193%" gradientTransform="scale(.24427 1) rotate(13.306 0 .032)" id="h"><stop stop-color="#4FC3F7" offset="0%"/><stop stop-color="#AB5CA4" offset="49.494%"/><stop stop-color="#FF512F" offset="100%"/></radialGradient><radialGradient cx="0%" cy="3.177%" fx="0%" fy="3.177%" r="139.193%" gradientTransform="matrix(.21095 .20425 -.04402 .97892 .001 0)" id="i"><stop stop-color="#4FC3F7" offset="0%"/><stop stop-color="#AB5CA4" offset="49.494%"/><stop stop-color="#FF512F" offset="100%"/></radialGradient><radialGradient cx="0%" cy="3.177%" fx="0%" fy="3.177%" r="139.193%" gradientTransform="scale(.21554 1) rotate(11.788 0 .032)" id="j"><stop stop-color="#4FC3F7" offset="0%"/><stop stop-color="#AB5CA4" offset="49.494%"/><stop stop-color="#FF512F" offset="100%"/></radialGradient></defs><g fill="none" fill-opacity=".82"><path d="M29.663 3.38h-1.121c-.061 0-.112.046-.112.103v1.661c0 .617.505.925 1.12.925h.225c.616 0 1.12-.309 1.12-.925V3.483c0-.057-.05-.103-.11-.103h-1.122z" fill="url(#a)"/><path d="M27.085 2.93h5.38a.9.9 0 0 0 .897-.895v-.897a.9.9 0 0 0-.897-.897h-5.38a.9.9 0 0 0-.897.897v.897a.9.9 0 0 0 .897.896z" fill="url(#b)"/><path d="M31.673 5.307c0 .51-.553 1.434-2.01 1.434-1.457 0-2.01-1.008-2.01-1.434-7.591.986-13.456 7.472-13.456 15.332 0 8.541 6.925 15.466 15.466 15.466 8.542 0 15.466-6.925 15.466-15.466 0-7.86-5.864-14.346-13.456-15.332zm-2.01 27.66c-6.809 0-12.328-5.52-12.328-12.328 0-6.809 5.519-12.329 12.328-12.329 6.809 0 12.328 5.52 12.328 12.329 0 6.809-5.52 12.328-12.328 12.328z" fill="url(#c)"/><path d="M30.111 19.33v-8.554h-.671v8.555a1.57 1.57 0 1 0 .671 0z" fill="url(#d)"/><path d="M31.068 18.46s.402.12.668.386c.266.265.442.723.442.723l2.69-2.69-1.108-1.11-2.692 2.69z" fill="url(#e)"/><path d="M.395 20.155c0 .616.505 1.12 1.121 1.12h9.593c.616 0 1.121-.504 1.121-1.12 0-.616-.505-1.121-1.12-1.121H1.515c-.616 0-1.12.505-1.12 1.121z" fill="url(#f)"/><path d="M7.12 8.939c0 .616.504 1.12 1.12 1.12h6.934c.616 0 1.12-.504 1.12-1.12 0-.617-.504-1.121-1.12-1.121H8.24c-.616 0-1.12.504-1.12 1.12z" fill="url(#g)"/><path d="M7.12 31.353c0 .617.504 1.12 1.12 1.12h6.934c.616 0 1.12-.503 1.12-1.12 0-.616-.504-1.12-1.12-1.12H8.24a1.122 1.122 0 0 0-1.12 1.12z" fill="url(#h)"/><path d="M2.861 25.861c0 .616.504 1.12 1.12 1.12h8.16c.616 0 1.12-.504 1.12-1.12 0-.616-.504-1.12-1.12-1.12H3.982c-.617 0-1.12.504-1.12 1.12z" fill="url(#i)"/><path d="M2.861 14.474c0 .617.504 1.121 1.12 1.121h8.16c.616 0 1.12-.504 1.12-1.12 0-.617-.504-1.121-1.12-1.121H3.982c-.617 0-1.12.504-1.12 1.12z" fill="url(#j)"/></g></svg>