<svg width="47" height="80" viewBox="0 0 47 80" xmlns="http://www.w3.org/2000/svg" xmlns:xlink="http://www.w3.org/1999/xlink"><title>A54F7F13-577F-460F-8B29-0FF5EE59C116</title><defs><radialGradient cx="0%" cy="3.177%" fx="0%" fy="3.177%" r="139.193%" gradientTransform="scale(1 .58114) rotate(59.027 -.02 .043)" id="b"><stop stop-color="#4FC3F7" offset="0%"/><stop stop-color="#AB5CA4" offset="49.494%"/><stop stop-color="#FF512F" offset="100%"/></radialGradient><path d="M.932 72.302c0 1.952 1.707 4.147 2.439 4.635 3.902 1.95 9.146 2.804 12.439 2.804 15.244 0 30.975-10.487 30.975-27.195 0-11.95-10.122-18.658-17.073-19.634 4.268-2.56 11.342-8.536 11.342-16.463 0-10-9.756-15.61-15.976-15.61-9.512 0-16.463 6.22-20.244 11.83 0 1.097.732 2.682 1.464 2.682 1.097-.853 5.975-8.049 13.658-8.049 6.951 0 11.951 4.878 11.951 11.342 0 10.488-9.268 15.854-19.024 18.049-.244.366-.244.731-.244 1.22 0 .975.244 1.828.732 2.438 1.463-.366 4.756-1.585 7.317-1.585 8.049 0 15.61 7.317 15.61 17.195 0 14.024-7.927 18.902-14.39 18.902-3.293 0-6.708-.731-9.025-3.048-1.951-1.952-3.415-5.366-6.83-5.366-2.682 0-5.121 2.317-5.121 5.853z" id="a"/></defs><g fill="none" fill-rule="evenodd"><mask id="c" fill="#fff"><use xlink:href="#a"/></mask><use fill-opacity=".82" fill="url(#b)" xlink:href="#a"/><path fill="#FFF" opacity=".4" mask="url(#c)" d="M-17.561-3.902h72.195v97.561h-72.195z"/></g></svg>