<svg width="54" height="80" viewBox="0 0 54 80" xmlns="http://www.w3.org/2000/svg" xmlns:xlink="http://www.w3.org/1999/xlink"><title>D06AC1E6-F90A-40F6-B845-F9D7E9B9806E</title><defs><radialGradient cx="0%" cy="3.177%" fx="0%" fy="3.177%" r="139.193%" gradientTransform="matrix(.57158 .55342 -.82055 .3855 .026 .02)" id="b"><stop stop-color="#4FC3F7" offset="0%"/><stop stop-color="#AB5CA4" offset="49.494%"/><stop stop-color="#FF512F" offset="100%"/></radialGradient><path d="M53.525 56.266c-.618-.495-1.607-.742-2.472-.742-.742 0-1.483.247-1.73.866-1.978 4.45-4.204 11.001-11.62 11.001H16.44c8.53-7.787 16.44-16.564 23.24-24.476 5.686-6.675 9.394-13.968 9.394-21.509C49.075 8.056 39.433.64 27.566.64 13.721.64 4.945 11.394 2.843 16.091c0 1.854 1.978 2.967 2.596 2.967.989-.99 5.563-8.777 14.216-8.777 6.675 0 13.227 6.057 13.227 14.216 0 5.563-1.484 12.98-7.17 22.003C17.059 60.098 9.518 67.268 0 77.775c.124.618.494 1.607 1.113 2.225h44.995c.742-2.349 6.058-17.924 7.417-23.734z" id="a"/></defs><g fill="none" fill-rule="evenodd"><mask id="c" fill="#fff"><use xlink:href="#a"/></mask><use fill-opacity=".82" fill="url(#b)" xlink:href="#a"/><path fill="#FFF" opacity=".4" mask="url(#c)" d="M-13-5h74V95h-74z"/></g></svg>