<svg width="237" height="50" viewBox="0 0 237 50" xmlns="http://www.w3.org/2000/svg"><title>10B153C1-2F1F-4526-BFC1-4042DAD2BB43</title><g fill="#FFF" fill-rule="evenodd"><path d="M21.983 36.273c.037.26.056.473.056.64 0 .167-.205.324-.614.473a20.226 20.226 0 0 1-4.129.78 44.642 44.642 0 0 1-3.515.166c-3.199 0-5.486-.677-6.862-2.032-1.377-1.354-2.065-3.348-2.065-5.983V14.453H.95c-.41 0-.67-.102-.782-.306A1.548 1.548 0 0 1 0 13.396V10.39c0-.371.046-.621.14-.751.092-.13.344-.25.753-.362l4.129-.946.39-5.233c.037-.445.158-.76.363-.946.204-.185.511-.334.92-.445l5.133-1.67c.335-.074.605-.037.81.111.204.149.306.446.306.891v7.459h6.138c.409 0 .66.083.753.25.093.167.14.399.14.696v3.952c0 .37-.038.64-.112.807-.075.167-.335.25-.781.25h-6.138v14.138c0 1.076.27 1.819.81 2.227.539.408 1.348.612 2.426.612.26 0 .577-.018.949-.056.372-.037.753-.074 1.144-.11l1.144-.112c.372-.037.688-.074.948-.112.595-.11.911.075.949.557l.67 4.676zm29.995-2.171c0 .482-.065.89-.195 1.224-.13.334-.456.65-.976.947-.856.408-1.776.742-2.762 1.002s-1.99.463-3.013.612a42.79 42.79 0 0 1-3.097.334 41.699 41.699 0 0 1-2.957.111c-2.53 0-4.621-.241-6.277-.724-1.655-.482-2.985-1.14-3.989-1.975-1.004-.835-1.711-1.819-2.12-2.95-.41-1.132-.614-2.348-.614-3.646 0-1.448.242-2.774.725-3.98a8.555 8.555 0 0 1 2.176-3.145c.967-.89 2.186-1.586 3.655-2.087 1.47-.501 3.208-.752 5.217-.752h6.137v-.89c0-.52-.056-1.02-.167-1.503a2.547 2.547 0 0 0-.698-1.253c-.353-.352-.846-.64-1.478-.862-.633-.223-1.47-.334-2.511-.334-.558 0-1.19.028-1.897.083a41.17 41.17 0 0 0-2.12.223c-.707.093-1.395.204-2.065.334-.67.13-1.264.269-1.785.417-.484.112-.818.112-1.004 0-.186-.111-.317-.352-.39-.723l-.894-3.897c-.111-.408-.12-.695-.028-.862.093-.167.289-.306.586-.418a27.021 27.021 0 0 1 5.273-1.28c1.841-.26 3.673-.39 5.496-.39 4.054 0 7.03.863 8.927 2.589 1.897 1.725 2.845 4.276 2.845 7.653v16.142zm-7.956-9.63h-4.407c-.521 0-1.08.038-1.674.112a4.514 4.514 0 0 0-1.646.529 3.51 3.51 0 0 0-1.256 1.196c-.334.52-.502 1.225-.502 2.115 0 1.3.437 2.208 1.311 2.728.875.52 2.056.779 3.543.779.224 0 .521-.01.893-.028a14.8 14.8 0 0 0 1.2-.111c.428-.056.865-.13 1.31-.223a7.34 7.34 0 0 0 1.228-.362v-6.735zm21.726 23.656c0 .409-.065.668-.195.78-.13.111-.456.167-.976.167h-5.803c-.41 0-.707-.056-.893-.167-.186-.112-.279-.371-.279-.78v-36.29c0-.409.065-.734.196-.975.13-.241.437-.491.92-.751 1.786-.817 3.785-1.392 5.998-1.726a42.489 42.489 0 0 1 6.333-.5c2.64 0 4.863.398 6.667 1.196 1.804.798 3.255 1.874 4.352 3.228 1.098 1.355 1.888 2.96 2.372 4.815.483 1.856.725 3.84.725 5.956 0 2.078-.26 4.035-.781 5.872-.521 1.837-1.32 3.442-2.4 4.815-1.078 1.373-2.445 2.458-4.1 3.256-1.656.798-3.6 1.197-5.83 1.197-1.117 0-2.149-.047-3.097-.14a28.011 28.011 0 0 1-3.209-.528v10.575zm10.936-25.214c0-1.522-.149-2.802-.446-3.84-.298-1.04-.735-1.875-1.311-2.505a4.708 4.708 0 0 0-2.12-1.336c-.838-.26-1.777-.39-2.818-.39-.521 0-1.2.056-2.037.167a14.89 14.89 0 0 0-2.204.445v15.196c.967.26 1.832.427 2.595.5a21.27 21.27 0 0 0 2.036.112c1.86 0 3.376-.63 4.548-1.892 1.171-1.262 1.757-3.414 1.757-6.457zm24.55 10.464c0 1.41-.493 2.598-1.479 3.563-.986.964-2.204 1.447-3.654 1.447a5.23 5.23 0 0 1-2.009-.39 5.22 5.22 0 0 1-1.646-1.057 5.098 5.098 0 0 1-1.116-1.587 4.709 4.709 0 0 1-.418-1.976c0-.705.14-1.363.418-1.976a5.098 5.098 0 0 1 1.116-1.586 5.22 5.22 0 0 1 1.646-1.058 5.234 5.234 0 0 1 2.009-.39c1.45 0 2.668.483 3.654 1.448.986.965 1.479 2.152 1.479 3.562zm31.58.724c0 .482-.066.89-.196 1.224-.13.334-.455.65-.976.947-.856.408-1.776.742-2.762 1.002s-1.99.463-3.013.612a42.79 42.79 0 0 1-3.097.334 41.699 41.699 0 0 1-2.957.111c-2.529 0-4.621-.241-6.277-.724-1.655-.482-2.985-1.14-3.989-1.975-1.004-.835-1.71-1.819-2.12-2.95-.41-1.132-.614-2.348-.614-3.646 0-1.448.242-2.774.726-3.98a8.555 8.555 0 0 1 2.176-3.145c.967-.89 2.185-1.586 3.654-2.087 1.47-.501 3.208-.752 5.217-.752h6.137v-.89c0-.52-.056-1.02-.167-1.503a2.547 2.547 0 0 0-.698-1.253c-.353-.352-.846-.64-1.478-.862-.632-.223-1.47-.334-2.51-.334-.559 0-1.191.028-1.898.083a41.17 41.17 0 0 0-2.12.223c-.707.093-1.395.204-2.064.334-.67.13-1.265.269-1.786.417-.483.112-.818.112-1.004 0-.186-.111-.316-.352-.39-.723l-.893-3.897c-.112-.408-.121-.695-.028-.862.093-.167.288-.306.585-.418a27.021 27.021 0 0 1 5.273-1.28c1.841-.26 3.673-.39 5.496-.39 4.054 0 7.03.863 8.927 2.589 1.897 1.725 2.846 4.276 2.846 7.653v16.142zm-8.147-9.63h-4.407c-.521 0-1.079.038-1.674.112a4.514 4.514 0 0 0-1.646.529 3.51 3.51 0 0 0-1.255 1.196c-.335.52-.503 1.225-.503 2.115 0 1.3.437 2.208 1.312 2.728.874.52 2.055.779 3.543.779.223 0 .52-.01.892-.028a14.8 14.8 0 0 0 1.2-.111c.428-.056.865-.13 1.311-.223a7.34 7.34 0 0 0 1.227-.362v-6.735zm38.164-11.8c0 .557-.084 1.104-.251 1.642a4.372 4.372 0 0 1-.865 1.53l-13.39 15.03.111.278h13.614c.41 0 .688.065.837.195.149.13.223.398.223.807v4.508c0 .408-.065.687-.195.835-.13.149-.4.223-.81.223h-21.703c-.93 0-1.61-.214-2.037-.64-.428-.427-.642-1.011-.642-1.754v-1.67c0-.556.084-1.113.252-1.67.167-.556.53-1.15 1.088-1.78l13.334-15.029-.111-.223h-12.163c-.447 0-.726-.074-.837-.222-.112-.149-.168-.427-.168-.835V9.555c0-.705.354-1.057 1.06-1.057h19.863c.93 0 1.628.139 2.093.417.465.278.697.881.697 1.81v1.947z"/><text font-family="SourceSansPro-Semibold, Source Sans Pro" font-size="22" font-weight="500"><tspan x="170" y="30">pulsuz </tspan> <tspan x="170" y="48.9">elanlar</tspan></text></g></svg>