<svg width="18" height="21" viewBox="0 0 18 21" xmlns="http://www.w3.org/2000/svg"><title>Combined Shape</title><path d="M1.31 6.848h-.053C.564 6.848 0 7.412 0 8.099v5.45c0 .691.564 1.254 1.257 1.254h.055c.692 0 1.257-.564 1.257-1.253V8.1A1.26 1.26 0 0 0 1.31 6.847zm1.86 8.806c0 .633.52 1.148 1.155 1.148H5.56v2.944c0 .692.567 1.254 1.257 1.254h.054c.693 0 1.259-.563 1.259-1.254v-2.944h1.725v2.944A1.26 1.26 0 0 0 11.112 21h.054c.693 0 1.257-.563 1.257-1.254v-2.944h1.236c.634 0 1.154-.515 1.154-1.148V7.048H3.17v8.606zm8.721-13.826l.98-1.507a.207.207 0 0 0-.06-.287.207.207 0 0 0-.289.061l-1.016 1.56a6.65 6.65 0 0 0-2.514-.486c-.9 0-1.75.174-2.514.486L5.463.095a.209.209 0 0 0-.351.226l.981 1.507c-1.769.864-2.962 2.492-2.962 4.359 0 .114.007.227.017.34h11.689a3.85 3.85 0 0 0 .016-.34c0-1.867-1.194-3.495-2.962-4.359zm-5.609 2.7a.56.56 0 0 1 0-1.118.559.559 0 1 1 0 1.118zm5.42 0a.56.56 0 0 1 0-1.118.558.558 0 1 1 0 1.118zm5.024 2.32h-.052a1.26 1.26 0 0 0-1.259 1.251v5.45a1.26 1.26 0 0 0 1.259 1.254h.053c.693 0 1.257-.564 1.257-1.253V8.1c0-.688-.566-1.252-1.258-1.252z" fill="#9B9B9B" fill-rule="evenodd"/></svg>