<svg width="27" height="31" viewBox="0 0 27 31" xmlns="http://www.w3.org/2000/svg"><title>0458CC59-BFD1-4519-82BA-ADBBE3D51D34</title><g fill="#4FC3F7"><path d="M2.6 28.135l2.466-1.644a1.01 1.01 0 0 1 1.12 0l3.475 2.317 3.476-2.317a1.01 1.01 0 0 1 1.12 0l3.475 2.317 3.476-2.317a1.01 1.01 0 0 1 1.12 0l2.466 1.644V2.781H2.6v25.354zm-.45 2.725a1.009 1.009 0 0 1-1.568-.84V1.772c0-.557.451-1.009 1.009-1.009h24.212a1.01 1.01 0 0 1 1.009 1.01V30.02c0 .806-.898 1.287-1.568.84l-3.476-2.317-3.476 2.317a1.01 1.01 0 0 1-1.12 0l-3.475-2.317-3.476 2.317a1.01 1.01 0 0 1-1.12 0l-3.475-2.317L2.15 30.86z"/><path d="M6.971 10.852h6.726a1.009 1.009 0 1 0 0-2.018H6.97a1.009 1.009 0 1 0 0 2.018zm12.106 0h1.346a1.009 1.009 0 0 0 0-2.018h-1.346a1.009 1.009 0 0 0 0 2.018zM6.971 16.233h6.726a1.009 1.009 0 1 0 0-2.018H6.97a1.009 1.009 0 0 0 0 2.018zm12.106 0h1.346a1.009 1.009 0 0 0 0-2.018h-1.346a1.009 1.009 0 0 0 0 2.018zm-12.106 5.38h6.726a1.009 1.009 0 1 0 0-2.017H6.97a1.009 1.009 0 1 0 0 2.017zm12.106 0h1.346a1.009 1.009 0 0 0 0-2.017h-1.346a1.009 1.009 0 1 0 0 2.017z"/></g></svg>