<svg width="32" height="32" viewBox="0 0 32 32" xmlns="http://www.w3.org/2000/svg"><title>5BC775D0-6E1E-4482-BF04-3B930EEE32FA</title><g stroke="#4FC3F7" fill="none"><path d="M30.067 24.596l-4.562-4.565a2.422 2.422 0 0 0-1.726-.687 2.62 2.62 0 0 0-1.842.75l-2.218 2.218-.358-.198a22.638 22.638 0 0 1-5.49-3.972 22.723 22.723 0 0 1-3.989-5.513l-.182-.335 2.222-2.219c1-.973 1.026-2.57.06-3.577L7.41 1.94a2.413 2.413 0 0 0-1.726-.69 2.617 2.617 0 0 0-1.848.753l-1.12 1.13a.474.474 0 0 0-.069.087l-.091.151a7.684 7.684 0 0 0-1.067 1.883 7.92 7.92 0 0 0-.48 1.93C.4 12.23 2.697 16.836 8.932 23.07c7.38 7.38 13.598 7.951 15.327 7.951.19.002.38-.005.568-.022a7.923 7.923 0 0 0 1.936-.49 7.49 7.49 0 0 0 1.898-1.079l.258-.2.037-.035 1.051-1.032a2.529 2.529 0 0 0 .06-3.568zm-.719 2.903l-1.029 1.01-.235.185a6.558 6.558 0 0 1-1.66.941 6.978 6.978 0 0 1-1.7.43c-.016 0-.176.019-.465.019-1.638 0-7.53-.552-14.662-7.675C3.59 16.401 1.373 12.024 1.944 7.292c.069-.58.21-1.15.42-1.694.233-.6.55-1.163.942-1.673l.031-.044.088-.122L4.508 2.67a1.67 1.67 0 0 1 1.176-.48c.395-.009.777.14 1.06.414l4.563 4.56c.597.638.57 1.637-.06 2.243L8.76 11.882a.47.47 0 0 0-.078.565l.364.628A23.532 23.532 0 0 0 13.2 18.82a23.463 23.463 0 0 0 5.701 4.116l.668.37a.47.47 0 0 0 .559-.093l2.47-2.47a1.673 1.673 0 0 1 1.179-.474c.398-.003.781.153 1.064.433l4.559 4.563c.287.287.444.68.436 1.085a1.654 1.654 0 0 1-.49 1.149h.003z" fill="#4FC3F7"/><path d="M17.73 4.371c5.455.007 9.876 4.428 9.883 9.884a.47.47 0 1 0 .942 0C28.548 8.279 23.705 3.437 17.73 3.43a.47.47 0 1 0 0 .941zm-.942 4.393a6.438 6.438 0 0 1 6.433 6.432.47.47 0 1 0 .94 0 7.383 7.383 0 0 0-7.373-7.374.47.47 0 1 0 0 .942z" fill="#FF7043"/></g></svg>