<svg width="26" height="31" viewBox="0 0 26 31" xmlns="http://www.w3.org/2000/svg"><title>DF52237D-A524-4598-9719-C91CC6DAE37D</title><path d="M6.537 7.262a1.578 1.578 0 1 1 3.156 0 1.578 1.578 0 0 1-3.156 0zm-1.818 5.681c.093.045.182.098.275.138a6.668 6.668 0 0 0 1.92.445c.61.062 1.224.077 1.836.044a8.553 8.553 0 0 0 1.618-.222 4.734 4.734 0 0 0 1.107-.4c.094-.05.103-.063.098-.191 0-.276-.022-.97-.044-1.245a3.925 3.925 0 0 0-.16-.867.698.698 0 0 0-.445-.516c-.32-.097-.64-.208-.956-.31l-.853-.24c-.08-.027-.08 0-.102.075a23.717 23.717 0 0 1-.48 1.956l-.045.142v-.04c-.04-.396-.08-.791-.124-1.187a.551.551 0 0 1 .04-.302c.022-.05.041-.1.057-.151a.227.227 0 0 0-.093-.267h-.493a.076.076 0 0 0-.05.031.284.284 0 0 0-.035.267c.022.062.045.124.071.186a.369.369 0 0 1 0 .196c-.03.285-.057.573-.089.858l-.04.391A22.968 22.968 0 0 1 7.2 9.57a.84.84 0 0 0-.111 0l-1.8.578a.596.596 0 0 0-.378.391 3.778 3.778 0 0 0-.151.587c-.061.564-.09 1.131-.09 1.698-.01.046.01.094.05.12zM25.167 2.2v27.21a1.414 1.414 0 0 1-1.41 1.409H1.58a1.414 1.414 0 0 1-1.409-1.41V2.195a1.414 1.414 0 0 1 1.41-1.41h22.181a1.414 1.414 0 0 1 1.41 1.41l-.005.004zm-1.778.37H1.949v26.47h21.444V2.564l-.004.004zm-8.575 5.333h5.036a.889.889 0 1 0 0-1.778h-5.032a.889.889 0 1 0 0 1.774l-.004.004zm0 3.405h5.036a.889.889 0 1 0 0-1.778h-5.032a.889.889 0 0 0 0 1.774l-.004.004zm-9.74 6.353h15.194a.889.889 0 1 0 0-1.778H5.074a.889.889 0 1 0 0 1.778zm0 3.88h15.194a.889.889 0 1 0 0-1.778H5.074a.891.891 0 1 0 0 1.783v-.005zm0 3.881h15.194a.889.889 0 1 0 0-1.778H5.074a.891.891 0 1 0 0 1.782v-.004z" fill="#4FC3F7"/></svg>