<svg width="21" height="21" viewBox="0 0 21 21" xmlns="http://www.w3.org/2000/svg"><title>Combined Shape</title><path d="M14.744 0H6.256A6.263 6.263 0 0 0 0 6.256v8.488A6.263 6.263 0 0 0 6.256 21h8.488A6.263 6.263 0 0 0 21 14.744V6.256A6.263 6.263 0 0 0 14.744 0zm4.143 14.744a4.143 4.143 0 0 1-4.143 4.143H6.256a4.143 4.143 0 0 1-4.143-4.143V6.256a4.143 4.143 0 0 1 4.143-4.143h8.488a4.143 4.143 0 0 1 4.143 4.143v8.488zM10.5 5.069A5.437 5.437 0 0 0 5.069 10.5a5.438 5.438 0 0 0 5.431 5.431 5.438 5.438 0 0 0 5.431-5.431A5.437 5.437 0 0 0 10.5 5.069zm0 8.75a3.319 3.319 0 1 1 0-6.638 3.319 3.319 0 0 1 0 6.638zm5.442-7.408a1.301 1.301 0 1 0 0-2.603 1.301 1.301 0 0 0 0 2.603z" fill="#9B9B9B" fill-rule="evenodd"/></svg>