<svg width="18" height="21" viewBox="0 0 18 21" xmlns="http://www.w3.org/2000/svg"><title>Apple</title><path d="M9.698 1.59C10.459.705 11.747.045 12.81 0c.135 1.232-.364 2.465-1.1 3.354-.74.887-1.948 1.578-3.134 1.486-.161-1.205.436-2.462 1.122-3.25zm6.044 16.803c-.881 1.28-1.793 2.552-3.233 2.579-1.417.026-1.87-.833-3.488-.833-1.618 0-2.125.806-3.462.86-1.39.051-2.447-1.383-3.336-2.657C.407 15.736-.979 10.974.885 7.76c.923-1.596 2.577-2.605 4.37-2.632 1.364-.025 2.654.914 3.487.914.835 0 2.4-1.128 4.046-.962.689.028 2.622.275 3.863 2.08-.098.063-2.307 1.34-2.28 3.999.026 3.176 2.802 4.232 2.835 4.246-.026.075-.444 1.507-1.464 2.988z" fill="#9B9B9B" fill-rule="evenodd"/></svg>