<?xml version="1.0" encoding="UTF-8"?>
<svg width="33px" height="33px" viewBox="0 0 33 33" version="1.1" xmlns="http://www.w3.org/2000/svg" xmlns:xlink="http://www.w3.org/1999/xlink">
    <!-- Generator: sketchtool 46.1 (44463) - http://www.bohemiancoding.com/sketch -->
    <title>E12002B0-34A2-4DC5-A4DF-789D1FDFA113</title>
    <desc>Created with sketchtool.</desc>
    <defs>
        <radialGradient cx="0%" cy="3.17686299%" fx="0%" fy="3.17686299%" r="139.193103%" id="radialGradient-1">
            <stop stop-color="#4FC3F7" offset="0%"></stop>
            <stop stop-color="#AB5CA4" offset="49.4937365%"></stop>
            <stop stop-color="#FF512F" offset="100%"></stop>
        </radialGradient>
        <radialGradient cx="0%" cy="3.17686299%" fx="0%" fy="3.17686299%" r="139.193103%" gradientTransform="translate(0.000000,0.031769),scale(0.671709,1.000000),rotate(33.038763),translate(-0.000000,-0.031769)" id="radialGradient-2">
            <stop stop-color="#4FC3F7" offset="0%"></stop>
            <stop stop-color="#AB5CA4" offset="49.4937365%"></stop>
            <stop stop-color="#FF512F" offset="100%"></stop>
        </radialGradient>
    </defs>
    <g id="Page-2" stroke="none" stroke-width="1" fill="none" fill-rule="evenodd" fill-opacity="0.819999993">
        <g id="Landing-page-1" transform="translate(-499.000000, -920.000000)" fill-rule="nonzero">
            <g id="Features" transform="translate(65.000000, 795.000000)">
                <g id="Group-13" transform="translate(399.000000, 93.000000)">
                    <g id="Group-5" transform="translate(35.000000, 32.000000)">
                        <g id="Group">
                            <path d="M16.5,32.79375 C25.4925,32.79375 32.79375,25.4925 32.79375,16.5 C32.79375,7.5075 25.4925,0.20625 16.5,0.20625 C7.5075,0.20625 0.20625,7.5075 0.20625,16.5 C0.20625,25.4925 7.5075,32.79375 16.5,32.79375 Z M16.5,3.09375 C23.88375,3.09375 29.90625,9.11625 29.90625,16.5 C29.90625,23.88375 23.88375,29.90625 16.5,29.90625 C9.11625,29.90625 3.09375,23.88375 3.09375,16.5 C3.09375,9.11625 9.11625,3.09375 16.5,3.09375 Z" id="Shape" fill="url(#radialGradient-1)"></path>
                            <path d="M13.65375,21.615 C13.9425,21.90375 14.31375,22.0275 14.685,22.0275 C15.05625,22.0275 15.38625,21.90375 15.675,21.615 L24.21375,13.48875 C24.79125,12.9525 24.8325,12.045 24.255,11.4675 C23.71875,10.89 22.81125,10.84875 22.23375,11.42625 L14.685,18.5625 L10.76625,14.64375 C10.18875,14.06625 9.28125,14.06625 8.70375,14.64375 C8.12625,15.22125 8.12625,16.12875 8.70375,16.70625 L13.65375,21.615 Z" id="Shape" fill="url(#radialGradient-2)"></path>
                        </g>
                    </g>
                </g>
            </g>
        </g>
    </g>
</svg>