<?xml version="1.0" encoding="UTF-8"?>
<svg width="47px" height="80px" viewBox="0 0 47 80" version="1.1" xmlns="http://www.w3.org/2000/svg" xmlns:xlink="http://www.w3.org/1999/xlink">
    <!-- Generator: sketchtool 46.1 (44463) - http://www.bohemiancoding.com/sketch -->
    <title>06E90DD9-A90C-44E2-9FE6-FDDE3D135FAC</title>
    <desc>Created with sketchtool.</desc>
    <defs>
        <radialGradient cx="0%" cy="3.17686299%" fx="0%" fy="3.17686299%" r="139.193103%" gradientTransform="translate(0.000000,0.031769),scale(1.000000,0.579353),rotate(59.105301),translate(-0.000000,-0.031769)" id="radialGradient-1">
            <stop stop-color="#4FC3F7" offset="0%"></stop>
            <stop stop-color="#AB5CA4" offset="49.4937365%"></stop>
            <stop stop-color="#FF512F" offset="100%"></stop>
        </radialGradient>
        <path d="M0.327927928,72.418018 C0.327927928,74.3783784 2.04324324,76.5837838 2.77837838,77.0738739 C6.6990991,79.0342342 11.9675676,79.8918919 15.2756757,79.8918919 C30.590991,79.8918919 46.3963964,69.354955 46.3963964,52.5693694 C46.3963964,42.154955 37.8198198,30.8828829 23.3621622,30.8828829 C20.0540541,30.8828829 13.8054054,31.8630631 10.3747748,33.2108108 C11.845045,26.3495495 13.3153153,18.5081081 14.7855856,11.1567568 L25.0774775,11.1567568 C31.4486486,11.1567568 35.8594595,10.7891892 39.2900901,10.4216216 C41.4954955,7.84864865 42.9657658,2.45765766 42.9657658,1.72252252 C42.9657658,1.10990991 42.2306306,0.864864865 41.4954955,0.374774775 C41.4954955,0.374774775 35.2468468,1.47747748 30.2234234,1.47747748 L12.0900901,1.47747748 C10.7423423,8.95135135 7.67927928,24.1441441 4.98378378,37.8666667 C4.98378378,38.7243243 5.47387387,39.581982 5.96396396,39.581982 C7.92432432,38.6018018 13.6828829,37.7441441 16.2558559,37.7441441 C30.4684685,37.7441441 35.8594595,48.4036036 35.8594595,56 C35.8594595,70.2126126 27.8954955,74.990991 21.4018018,74.990991 C18.0936937,74.990991 14.6630631,74.2558559 12.3351351,71.9279279 C10.3747748,69.9675676 8.9045045,66.5369369 5.47387387,66.5369369 C2.77837838,66.5369369 0.327927928,68.8648649 0.327927928,72.418018 Z" id="path-2"></path>
    </defs>
    <g id="Page-2" stroke="none" stroke-width="1" fill="none" fill-rule="evenodd">
        <g id="Landing-page-1" transform="translate(-767.000000, -1399.000000)">
            <g id="Features" transform="translate(65.000000, 795.000000)">
                <g id="Group-16" transform="translate(399.000000, 424.000000)">
                    <g id="Bitmap-+-Rectangle-7-Mask" transform="translate(303.000000, 180.000000)">
                        <mask id="mask-3" fill="white">
                            <use xlink:href="#path-2"></use>
                        </mask>
                        <use id="Mask" fill-opacity="0.819999993" fill="url(#radialGradient-1)" xlink:href="#path-2"></use>
                        <rect id="Rectangle-7" fill="#FFFFFF" opacity="0.4" mask="url(#mask-3)" x="-24.5045045" y="-7.92792793" width="74.2342342" height="98.7387387"></rect>
                    </g>
                </g>
            </g>
        </g>
    </g>
</svg>