<?xml version="1.0" encoding="UTF-8"?>
<svg width="39px" height="36px" viewBox="0 0 39 36" version="1.1" xmlns="http://www.w3.org/2000/svg" xmlns:xlink="http://www.w3.org/1999/xlink">
    <!-- Generator: sketchtool 46.1 (44463) - http://www.bohemiancoding.com/sketch -->
    <title>575C4E7B-E275-4EEA-8B30-4B5298CA781F</title>
    <desc>Created with sketchtool.</desc>
    <defs>
        <radialGradient cx="0%" cy="3.17686299%" fx="0%" fy="3.17686299%" r="139.193103%" gradientTransform="translate(0.000000,0.031769),scale(0.383245,1.000000),rotate(20.358394),translate(-0.000000,-0.031769)" id="radialGradient-1">
            <stop stop-color="#4FC3F7" offset="0%"></stop>
            <stop stop-color="#AB5CA4" offset="49.4937365%"></stop>
            <stop stop-color="#FF512F" offset="100%"></stop>
        </radialGradient>
        <radialGradient cx="0%" cy="3.17686299%" fx="0%" fy="3.17686299%" r="139.193103%" gradientTransform="translate(0.000000,0.031769),scale(0.520000,1.000000),rotate(26.724355),translate(-0.000000,-0.031769)" id="radialGradient-2">
            <stop stop-color="#4FC3F7" offset="0%"></stop>
            <stop stop-color="#AB5CA4" offset="49.4937365%"></stop>
            <stop stop-color="#FF512F" offset="100%"></stop>
        </radialGradient>
        <radialGradient cx="0%" cy="3.17686299%" fx="0%" fy="3.17686299%" r="139.193103%" gradientTransform="translate(0.000000,0.031769),scale(1.000000,0.473684),rotate(63.930906),translate(-0.000000,-0.031769)" id="radialGradient-3">
            <stop stop-color="#4FC3F7" offset="0%"></stop>
            <stop stop-color="#AB5CA4" offset="49.4937365%"></stop>
            <stop stop-color="#FF512F" offset="100%"></stop>
        </radialGradient>
        <radialGradient cx="0%" cy="3.17686299%" fx="0%" fy="3.17686299%" r="139.193103%" id="radialGradient-4">
            <stop stop-color="#4FC3F7" offset="0%"></stop>
            <stop stop-color="#AB5CA4" offset="49.4937365%"></stop>
            <stop stop-color="#FF512F" offset="100%"></stop>
        </radialGradient>
    </defs>
    <g id="Page-2" stroke="none" stroke-width="1" fill="none" fill-rule="evenodd" fill-opacity="0.819999993">
        <g id="Landing-page-1" transform="translate(-900.000000, -1248.000000)" fill-rule="nonzero">
            <g id="Features" transform="translate(65.000000, 795.000000)">
                <g id="Group-14" transform="translate(800.000000, 424.000000)">
                    <g id="Group-10" transform="translate(35.000000, 29.000000)">
                        <g id="Group">
                            <path d="M19.1408104,33.0266046 C18.1088473,33.2715868 16.908572,33.2199985 15.8047271,32.8895854 L7.75980644,29.1133982 C7.13807138,28.8215634 6.39747667,29.0890003 6.10564185,29.7107354 C5.81380703,30.3324704 6.08124401,31.0730651 6.70297906,31.3649 L14.8278196,35.1786006 L14.9852991,35.2398392 C16.5558763,35.7306446 18.2773329,35.8065912 19.803177,35.4251301 L19.9261084,35.387549 L37.5022942,29.0037457 C38.122013,28.7786591 38.4583537,28.1090373 38.2688968,27.4775142 C38.0960386,26.9013202 37.7059746,26.1211921 37.0072266,25.3448055 C35.8459105,24.0544543 34.2090565,23.275 32.1033537,23.275 L23.9785131,23.275 C23.2916929,23.275 22.7349151,23.8317778 22.7349151,24.518598 C22.7349151,25.2054183 23.2916929,25.7621961 23.9785131,25.7621961 L32.1033537,25.7621961 C33.4797255,25.7621961 34.4544274,26.2263399 35.1585083,27.008652 C35.2037432,27.058913 35.2472453,27.1098941 35.2890336,27.161448 L19.1408104,33.0266046 Z" id="Shape" fill="url(#radialGradient-1)"></path>
                            <path d="M13.863621,26.5781537 C13.1768007,26.5781537 12.6200229,27.1349315 12.6200229,27.8217517 C12.6200229,28.5085719 13.1768007,29.0653497 13.863621,29.0653497 L25.4705361,29.0653497 C26.1573563,29.0653497 26.7141341,28.5085719 26.7141341,27.8217517 C26.7141341,24.7306419 23.5872537,21.6037615 20.4961439,21.6037615 L16.1462098,21.6037615 C14.4562805,19.5117184 11.7839155,18.2875 8.88922878,18.2875 L7.23109805,18.2875 C6.54427781,18.2875 5.9875,18.8442778 5.9875,19.531098 C5.9875,20.2179183 6.54427781,20.7746961 7.23109805,20.7746961 L8.88922878,20.7746961 C11.2236701,20.7746961 13.3218378,21.8237799 14.4933875,23.5466472 C14.724925,23.8871434 15.1099905,24.0909576 15.5217517,24.0909576 L20.4961439,24.0909576 C21.8054585,24.0909576 23.2867182,25.2610601 23.9168115,26.5781537 L13.863621,26.5781537 Z" id="Shape" fill="url(#radialGradient-2)"></path>
                            <path d="M2.4871961,19.1121961 L2.4871961,29.8900458 L4.97439219,29.8900458 L4.97439219,19.1121961 L2.4871961,19.1121961 Z M1.24359805,16.625 L6.21799024,16.625 C6.90481048,16.625 7.46158829,17.1817778 7.46158829,17.868598 L7.46158829,31.1336439 C7.46158829,31.8204641 6.90481048,32.3772419 6.21799024,32.3772419 L1.24359805,32.3772419 C0.556777811,32.3772419 0,31.8204641 0,31.1336439 L0,17.868598 C0,17.1817778 0.556777811,16.625 1.24359805,16.625 Z" id="Rectangle-path" fill="url(#radialGradient-3)"></path>
                            <path d="M26.4472582,19.0903497 C23.4710372,19.0903497 21.0583333,16.6776459 21.0583333,13.7014249 C21.0583333,10.7252038 23.4710372,8.3125 26.4472582,8.3125 C29.4234792,8.3125 31.8361831,10.7252038 31.8361831,13.7014249 C31.8361831,16.6776459 29.4234792,19.0903497 26.4472582,19.0903497 Z M26.4472582,16.6031537 C28.0498388,16.6031537 29.348987,15.3040054 29.348987,13.7014249 C29.348987,12.0988443 28.0498388,10.7996961 26.4472582,10.7996961 C24.8446777,10.7996961 23.5455294,12.0988443 23.5455294,13.7014249 C23.5455294,15.3040054 24.8446777,16.6031537 26.4472582,16.6031537 Z" id="Oval" fill="url(#radialGradient-4)"></path>
                            <path d="M15.3639249,10.7778497 C12.3877038,10.7778497 9.975,8.3651459 9.975,5.38892487 C9.975,2.41270385 12.3877038,0 15.3639249,0 C18.3401459,0 20.7528497,2.41270385 20.7528497,5.38892487 C20.7528497,8.3651459 18.3401459,10.7778497 15.3639249,10.7778497 Z M15.3639249,8.29065365 C16.9665054,8.29065365 18.2656537,6.99150543 18.2656537,5.38892487 C18.2656537,3.78634432 16.9665054,2.4871961 15.3639249,2.4871961 C13.7613443,2.4871961 12.4621961,3.78634432 12.4621961,5.38892487 C12.4621961,6.99150543 13.7613443,8.29065365 15.3639249,8.29065365 Z" id="Oval" fill="url(#radialGradient-4)"></path>
                        </g>
                    </g>
                </g>
            </g>
        </g>
    </g>
</svg>