<?xml version="1.0" encoding="UTF-8"?>
<svg width="37px" height="35px" viewBox="0 0 37 35" version="1.1" xmlns="http://www.w3.org/2000/svg" xmlns:xlink="http://www.w3.org/1999/xlink">
    <!-- Generator: sketchtool 46.1 (44463) - http://www.bohemiancoding.com/sketch -->
    <title>64BA4C51-391E-43CD-AEAA-ADF6CFC84B24</title>
    <desc>Created with sketchtool.</desc>
    <defs>
        <radialGradient cx="0%" cy="3.17686299%" fx="0%" fy="3.17686299%" r="139.193103%" gradientTransform="translate(0.000000,0.031769),scale(0.924958,1.000000),rotate(41.846783),translate(-0.000000,-0.031769)" id="radialGradient-1">
            <stop stop-color="#4FC3F7" offset="0%"></stop>
            <stop stop-color="#AB5CA4" offset="49.4937365%"></stop>
            <stop stop-color="#FF512F" offset="100%"></stop>
        </radialGradient>
    </defs>
    <g id="Page-2" stroke="none" stroke-width="1" fill="none" fill-rule="evenodd" fill-opacity="0.819999993">
        <g id="Landing-page-1" transform="translate(-100.000000, -1249.000000)" fill="url(#radialGradient-1)">
            <g id="Features" transform="translate(65.000000, 795.000000)">
                <g id="Group-12" transform="translate(0.000000, 424.000000)">
                    <g id="Group-9" transform="translate(35.000000, 30.000000)">
                        <path d="M3.08333333,31.1312147 L3.08333333,23.7865684 L7.70833333,23.7865684 L7.70833333,26.7380395 C7.70833333,27.5919243 8.399,28.2849322 9.25,28.2849322 C10.101,28.2849322 10.7916667,27.5919243 10.7916667,26.7380395 L10.7916667,23.7865684 L26.2083333,23.7865684 L26.2083333,26.7380395 C26.2083333,27.5919243 26.899,28.2849322 27.75,28.2849322 C28.601,28.2849322 29.2916667,27.5919243 29.2916667,26.7380395 L29.2916667,23.7865684 L33.9166667,23.7865684 L33.9166667,31.1312147 L3.08333333,31.1312147 Z M3.08333333,20.6927831 L33.9166667,20.6927831 L33.9166667,10.1120373 L3.08333333,10.1120373 L3.08333333,20.6927831 Z M10.7916667,7.02443955 L26.2083333,7.02443955 L26.2083333,3.0953322 L10.7916667,3.0953322 L10.7916667,7.02443955 Z M35.4583333,7.02443955 L29.2916667,7.02443955 L29.2916667,1.54843955 C29.2916667,0.694554802 28.601,0.00154689266 27.75,0.00154689266 L9.25,0.00154689266 C8.399,0.00154689266 7.70833333,0.694554802 7.70833333,1.54843955 L7.70833333,7.02443955 L1.54166667,7.02443955 C0.690666667,7.02443955 0,7.71744746 0,8.5713322 L0,32.6781073 C0,33.5319921 0.690666667,34.225 1.54166667,34.225 L35.4583333,34.225 C36.3093333,34.225 37,33.5319921 37,32.6781073 L37,8.5713322 C37,7.71744746 36.3093333,7.02443955 35.4583333,7.02443955 L35.4583333,7.02443955 Z" id="Page-1"></path>
                    </g>
                </g>
            </g>
        </g>
    </g>
</svg>