<?xml version="1.0" encoding="UTF-8"?>
<svg width="38px" height="31px" viewBox="0 0 38 31" version="1.1" xmlns="http://www.w3.org/2000/svg" xmlns:xlink="http://www.w3.org/1999/xlink">
    <!-- Generator: sketchtool 46.1 (44463) - http://www.bohemiancoding.com/sketch -->
    <title>E42138A5-C322-4997-A566-C73FBB2A603D</title>
    <desc>Created with sketchtool.</desc>
    <defs>
        <radialGradient cx="0%" cy="3.17686299%" fx="0%" fy="3.17686299%" r="139.193103%" gradientTransform="translate(0.000000,0.031769),scale(0.815789,1.000000),rotate(38.304254),translate(-0.000000,-0.031769)" id="radialGradient-1">
            <stop stop-color="#4FC3F7" offset="0%"></stop>
            <stop stop-color="#AB5CA4" offset="49.4937365%"></stop>
            <stop stop-color="#FF512F" offset="100%"></stop>
        </radialGradient>
    </defs>
    <g id="Page-2" stroke="none" stroke-width="1" fill="none" fill-rule="evenodd" fill-opacity="0.819999993">
        <g id="Landing-page-1" transform="translate(-900.000000, -921.000000)" fill="url(#radialGradient-1)">
            <g id="Features" transform="translate(65.000000, 795.000000)">
                <g id="Зарабатывайте" transform="translate(800.000000, 93.000000)">
                    <g id="Group-6" transform="translate(35.000000, 33.000000)">
                        <path d="M35.0769231,11.6091011 C35.0769231,10.8112645 34.4221538,10.1637449 33.6153846,10.1637449 L23.1215385,10.1637449 C20.2978462,10.1637449 18.0061538,12.4358448 18.0061538,15.2224916 C18.0061538,18.0091384 20.2978462,20.2812383 23.1215385,20.2812383 L33.6153846,20.2812383 C34.4221538,20.2812383 35.0769231,19.6337188 35.0769231,18.8358821 L35.0769231,11.6091011 Z M30.1603077,23.1719508 L23.1215385,23.1719508 C18.6843077,23.1719508 15.0830769,19.6048116 15.0830769,15.2224916 C15.0830769,10.8401716 18.6843077,7.27303245 23.1215385,7.27303245 L30.1603077,7.27303245 L30.1603077,4.33606863 C30.1603077,3.538232 29.4996923,2.89071242 28.6987692,2.89071242 L4.38461538,2.89071242 C3.57784615,2.89071242 2.92307692,3.538232 2.92307692,4.33606863 L2.92307692,26.6639314 C2.92307692,27.4502051 3.58953846,28.1092876 4.38461538,28.1092876 L28.6987692,28.1092876 C29.488,28.1092876 30.1603077,27.4502051 30.1603077,26.6639314 L30.1603077,23.1719508 Z M38,11.6091011 L38,18.8358821 C38,21.2236106 36.0356923,23.1719508 33.6153846,23.1719508 L33.0833846,23.1719508 L33.0833846,26.6639314 C33.0833846,29.0574413 31.1132308,31 28.6987692,31 L4.38461538,31 C1.96430769,31 0,29.0574413 0,26.6639314 L0,4.33606863 C0,1.94834017 1.96430769,0 4.38461538,0 L28.6987692,0 C31.1132308,0 33.0833846,1.94834017 33.0833846,4.33606863 L33.0833846,7.27303245 L33.6153846,7.27303245 C36.0356923,7.27303245 38,9.22137262 38,11.6091011 L38,11.6091011 Z M25.2144615,15.2224916 C25.2144615,16.3151809 24.3141538,17.2113018 23.2033846,17.2113018 C22.0926154,17.2113018 21.1923077,16.3151809 21.1923077,15.2224916 C21.1923077,14.1298023 22.0926154,13.2336815 23.2033846,13.2336815 C24.3141538,13.2336815 25.2144615,14.1298023 25.2144615,15.2224916 L25.2144615,15.2224916 Z" id="Fill-1"></path>
                    </g>
                </g>
            </g>
        </g>
    </g>
</svg>