<?xml version="1.0" encoding="UTF-8"?>
<svg width="39px" height="38px" viewBox="0 0 39 38" version="1.1" xmlns="http://www.w3.org/2000/svg" xmlns:xlink="http://www.w3.org/1999/xlink">
    <!-- Generator: sketchtool 46.1 (44463) - http://www.bohemiancoding.com/sketch -->
    <title>72B85467-AFF1-442C-BDF4-482AF0917511</title>
    <desc>Created with sketchtool.</desc>
    <defs>
        <radialGradient cx="0%" cy="3.17686299%" fx="0%" fy="3.17686299%" r="139.193103%" gradientTransform="translate(0.000000,0.031769),scale(0.950000,1.000000),rotate(42.608464),translate(-0.000000,-0.031769)" id="radialGradient-1">
            <stop stop-color="#4FC3F7" offset="0%"></stop>
            <stop stop-color="#AB5CA4" offset="49.4937365%"></stop>
            <stop stop-color="#FF512F" offset="100%"></stop>
        </radialGradient>
    </defs>
    <g id="Page-2" stroke="none" stroke-width="1" fill="none" fill-rule="evenodd" fill-opacity="0.819999993">
        <g id="Landing-page-1" transform="translate(-495.000000, -1247.000000)" fill="url(#radialGradient-1)">
            <g id="Features" transform="translate(65.000000, 795.000000)">
                <g id="Group-16" transform="translate(399.000000, 424.000000)">
                    <g id="Group-8" transform="translate(31.000000, 28.000000)">
                        <g id="7">
                            <path d="M19.5,25.9956495 C19.8113772,25.9956495 20.1227544,26.0912547 20.3742513,26.2824651 L27.7814353,31.6423313 L24.9550886,22.96616 C24.7514959,22.3507016 24.9730527,21.6754899 25.4999987,21.2990444 L32.8952067,15.933203 L23.7514961,15.933203 C23.1047896,15.933203 22.5299395,15.5149302 22.3323347,14.8994718 L19.5,6.21732522 L16.6676653,14.8994718 C16.4700605,15.5149302 15.8952104,15.933203 15.2485039,15.933203 L6.10479334,15.933203 L13.5000013,21.2990444 C14.0269473,21.6754899 14.2485041,22.3507016 14.0449114,22.96616 L11.2185647,31.6423313 L18.6257487,26.2824651 C18.8772456,26.0912547 19.1886228,25.9956495 19.5,25.9956495 M30.6257461,37.05 C30.3203569,37.05 30.0089797,36.9543948 29.7514948,36.7631844 L19.5,29.335856 L9.24850523,36.7631844 C8.73353528,37.1456052 8.00898454,37.1456052 7.49401459,36.7631844 C6.9670686,36.386739 6.74551176,35.7115273 6.94910453,35.0960689 L10.8652713,23.0796912 L0.619764596,15.6463874 C0.0928186031,15.2699419 -0.128738235,14.5947303 0.0748545351,13.9792718 C0.272459282,13.3638134 0.847309457,12.9455407 1.4940159,12.9455407 L14.1586838,12.9455407 L18.0808386,0.923187646 C18.4760481,-0.307729215 20.5239519,-0.307729215 20.9191614,0.923187646 L24.8413162,12.9455407 L37.5059841,12.9455407 C38.1526905,12.9455407 38.7275407,13.3638134 38.9251455,13.9792718 C39.1287382,14.5947303 38.9071814,15.2699419 38.3802354,15.6463874 L28.1347287,23.0796912 L32.0508955,35.0960689 C32.2544882,35.7115273 32.0329314,36.386739 31.5059854,36.7631844 C31.2485004,36.9543948 30.9371233,37.05 30.6257461,37.05" id="Fill-1"></path>
                        </g>
                    </g>
                </g>
            </g>
        </g>
    </g>
</svg>