<?xml version="1.0" encoding="UTF-8"?>
<svg width="46px" height="37px" viewBox="0 0 46 37" version="1.1" xmlns="http://www.w3.org/2000/svg" xmlns:xlink="http://www.w3.org/1999/xlink">
    <!-- Generator: sketchtool 46.1 (44463) - http://www.bohemiancoding.com/sketch -->
    <title>907D5BCB-0B0D-4A97-997A-25242FF28299</title>
    <desc>Created with sketchtool.</desc>
    <defs>
        <radialGradient cx="0%" cy="3.17686299%" fx="0%" fy="3.17686299%" r="139.193103%" gradientTransform="translate(0.000000,0.031769),scale(1.000000,0.916609),rotate(46.568836),translate(-0.000000,-0.031769)" id="radialGradient-1">
            <stop stop-color="#4FC3F7" offset="0%"></stop>
            <stop stop-color="#AB5CA4" offset="49.4937365%"></stop>
            <stop stop-color="#FF512F" offset="100%"></stop>
        </radialGradient>
        <radialGradient cx="0%" cy="3.17686299%" fx="0%" fy="3.17686299%" r="139.193103%" gradientTransform="translate(0.000000,0.031769),scale(0.374838,1.000000),rotate(19.947343),translate(-0.000000,-0.031769)" id="radialGradient-2">
            <stop stop-color="#4FC3F7" offset="0%"></stop>
            <stop stop-color="#AB5CA4" offset="49.4937365%"></stop>
            <stop stop-color="#FF512F" offset="100%"></stop>
        </radialGradient>
        <radialGradient cx="0%" cy="3.17686299%" fx="0%" fy="3.17686299%" r="139.193103%" gradientTransform="translate(0.000000,0.031769),scale(0.995668,1.000000),rotate(43.950994),translate(-0.000000,-0.031769)" id="radialGradient-3">
            <stop stop-color="#4FC3F7" offset="0%"></stop>
            <stop stop-color="#AB5CA4" offset="49.4937365%"></stop>
            <stop stop-color="#FF512F" offset="100%"></stop>
        </radialGradient>
        <radialGradient cx="0%" cy="3.17686299%" fx="0%" fy="3.17686299%" r="139.193103%" gradientTransform="translate(0.000000,0.031769),scale(1.000000,0.269229),rotate(74.460723),translate(-0.000000,-0.031769)" id="radialGradient-4">
            <stop stop-color="#4FC3F7" offset="0%"></stop>
            <stop stop-color="#AB5CA4" offset="49.4937365%"></stop>
            <stop stop-color="#FF512F" offset="100%"></stop>
        </radialGradient>
        <radialGradient cx="0%" cy="3.17686299%" fx="0%" fy="3.17686299%" r="139.193103%" gradientTransform="translate(0.000000,0.031769),scale(0.999878,1.000000),rotate(44.071781),translate(-0.000000,-0.031769)" id="radialGradient-5">
            <stop stop-color="#4FC3F7" offset="0%"></stop>
            <stop stop-color="#AB5CA4" offset="49.4937365%"></stop>
            <stop stop-color="#FF512F" offset="100%"></stop>
        </radialGradient>
        <radialGradient cx="0%" cy="3.17686299%" fx="0%" fy="3.17686299%" r="139.193103%" gradientTransform="translate(0.000000,0.031769),scale(0.189448,1.000000),rotate(10.394212),translate(-0.000000,-0.031769)" id="radialGradient-6">
            <stop stop-color="#4FC3F7" offset="0%"></stop>
            <stop stop-color="#AB5CA4" offset="49.4937365%"></stop>
            <stop stop-color="#FF512F" offset="100%"></stop>
        </radialGradient>
        <radialGradient cx="0%" cy="3.17686299%" fx="0%" fy="3.17686299%" r="139.193103%" gradientTransform="translate(0.000000,0.031769),scale(0.244320,1.000000),rotate(13.309158),translate(-0.000000,-0.031769)" id="radialGradient-7">
            <stop stop-color="#4FC3F7" offset="0%"></stop>
            <stop stop-color="#AB5CA4" offset="49.4937365%"></stop>
            <stop stop-color="#FF512F" offset="100%"></stop>
        </radialGradient>
        <radialGradient cx="0%" cy="3.17686299%" fx="0%" fy="3.17686299%" r="139.193103%" gradientTransform="translate(0.000000,0.031769),scale(0.244270,1.000000),rotate(13.306496),translate(-0.000000,-0.031769)" id="radialGradient-8">
            <stop stop-color="#4FC3F7" offset="0%"></stop>
            <stop stop-color="#AB5CA4" offset="49.4937365%"></stop>
            <stop stop-color="#FF512F" offset="100%"></stop>
        </radialGradient>
        <radialGradient cx="0%" cy="3.17686299%" fx="0%" fy="3.17686299%" r="139.193103%" gradientTransform="translate(0.000000,0.031769),scale(0.215497,1.000000),rotate(11.785719),translate(-0.000000,-0.031769)" id="radialGradient-9">
            <stop stop-color="#4FC3F7" offset="0%"></stop>
            <stop stop-color="#AB5CA4" offset="49.4937365%"></stop>
            <stop stop-color="#FF512F" offset="100%"></stop>
        </radialGradient>
        <radialGradient cx="0%" cy="3.17686299%" fx="0%" fy="3.17686299%" r="139.193103%" gradientTransform="translate(0.000000,0.031769),scale(0.215542,1.000000),rotate(11.788097),translate(-0.000000,-0.031769)" id="radialGradient-10">
            <stop stop-color="#4FC3F7" offset="0%"></stop>
            <stop stop-color="#AB5CA4" offset="49.4937365%"></stop>
            <stop stop-color="#FF512F" offset="100%"></stop>
        </radialGradient>
    </defs>
    <g id="Page-2" stroke="none" stroke-width="1" fill="none" fill-rule="evenodd" fill-opacity="0.819999993">
        <g id="Landing-page-1" transform="translate(-96.000000, -919.000000)" fill-rule="nonzero">
            <g id="Features" transform="translate(65.000000, 795.000000)">
                <g id="Быстро" transform="translate(0.000000, 93.000000)">
                    <g id="noun_14262_cc" transform="translate(31.000000, 31.000000)">
                        <g id="Group">
                            <path d="M29.6628739,3.37956798 C29.1082972,3.37956798 28.6030369,3.37956798 28.541624,3.37956798 C28.4806764,3.37956798 28.4304296,3.42609287 28.4304296,3.48285324 C28.4304296,3.5396136 28.4304296,4.0904683 28.4304296,4.70692308 L28.4304296,5.14425705 C28.4304296,5.76071183 28.9347594,6.0687066 29.5507489,6.0687066 L29.7749989,6.0687066 C30.3909884,6.0687066 30.8953182,5.76024659 30.8953182,5.14425705 L30.8953182,4.70692308 C30.8953182,4.09000305 30.8953182,3.5396136 30.8953182,3.48285324 C30.8953182,3.42609287 30.8450713,3.37956798 30.7841237,3.37956798 C30.7227109,3.37956798 30.2179158,3.37956798 29.6628739,3.37956798 Z" id="Shape" fill="url(#radialGradient-1)"></path>
                            <path d="M27.085395,2.9306028 L32.4646027,2.9306028 C32.9582318,2.9306028 33.3620679,2.52723201 33.3620679,2.03453342 L33.3620679,1.1379988 C33.3620679,0.64483497 32.9582318,0.241464177 32.4646027,0.241464177 L27.085395,0.241464177 C26.5917659,0.241464177 26.1879299,0.64483497 26.1879299,1.1379988 L26.1879299,2.03453342 C26.1879299,2.52769725 26.5917659,2.9306028 27.085395,2.9306028 Z" id="Shape" fill="url(#radialGradient-2)"></path>
                            <path d="M31.6732144,5.30709416 C31.6732144,5.81700695 31.1200334,6.74145651 29.6628739,6.74145651 C28.2061796,6.74145651 27.6525334,5.7327969 27.6525334,5.30709416 C20.0615324,6.29295657 14.1970701,12.7789914 14.1970701,20.6393715 C14.1970701,29.1804108 21.1218346,36.1051754 29.6628739,36.1051754 C38.2048436,36.1051754 45.1291429,29.1804108 45.1291429,20.6389063 C45.1291429,12.7789914 39.2651459,6.29295657 31.6732144,5.30709416 Z M29.6628739,32.9666063 C22.8539563,32.9666063 17.3351739,27.4478239 17.3351739,20.6389063 C17.3351739,13.8299887 22.8539563,8.31027579 29.6628739,8.31027579 C36.4717915,8.31027579 41.9905739,13.8295234 41.9905739,20.6389063 C41.9905739,27.4478239 36.4717915,32.9666063 29.6628739,32.9666063 Z" id="Shape" fill="url(#radialGradient-3)"></path>
                            <path d="M30.1113738,19.3306264 L30.1113738,10.7760949 L29.4395544,10.7760949 L29.4395544,19.3306264 C28.7342371,19.485089 28.2066448,20.1122445 28.2066448,20.862691 C28.2066448,21.729915 28.9091707,22.4319755 29.7754641,22.4319755 C30.6417576,22.4319755 31.3447486,21.729915 31.3447486,20.862691 C31.3442834,20.1122445 30.8157607,19.485089 30.1113738,19.3306264 Z" id="Shape" fill="url(#radialGradient-4)"></path>
                            <path d="M31.0683908,18.4596805 C31.0683908,18.4596805 31.4699006,18.5797147 31.736023,18.845837 C32.0021453,19.1114942 32.1775442,19.5688338 32.1775442,19.5688338 L34.8685438,16.8782995 L33.7603209,15.7691461 L31.0683908,18.4596805 Z" id="Shape" fill="url(#radialGradient-5)"></path>
                            <path d="M0.395461562,20.1550474 C0.395461562,20.771037 0.899791366,21.275832 1.51624615,21.275832 L11.1092131,21.275832 C11.7252027,21.275832 12.2299977,20.771037 12.2299977,20.1550474 L12.2299977,20.1550474 C12.2299977,19.5385927 11.7252027,19.0337976 11.1092131,19.0337976 L1.51624615,19.0337976 C0.899791366,19.0337976 0.395461562,19.5385927 0.395461562,20.1550474 L0.395461562,20.1550474 Z" id="Shape" fill="url(#radialGradient-6)"></path>
                            <path d="M7.11970386,8.93882705 C7.11970386,9.55528183 7.62403366,10.0596116 8.24048845,10.0596116 L15.1736275,10.0596116 C15.7900823,10.0596116 16.2944121,9.55528183 16.2944121,8.93882705 L16.2944121,8.93882705 C16.2944121,8.32237226 15.7900823,7.81804245 15.1736275,7.81804245 L8.24048845,7.81804245 C7.62403366,7.81804245 7.11970386,8.32237226 7.11970386,8.93882705 L7.11970386,8.93882705 Z" id="Shape" fill="url(#radialGradient-7)"></path>
                            <path d="M7.11970386,31.3526579 C7.11970386,31.9695779 7.62403366,32.4734425 8.24048845,32.4734425 L15.1736275,32.4734425 C15.7900823,32.4734425 16.2944121,31.9695779 16.2944121,31.3526579 L16.2944121,31.3526579 C16.2944121,30.7366683 15.7900823,30.2323385 15.1736275,30.2323385 L8.24048845,30.2323385 C7.62403366,30.2318733 7.11970386,30.7362031 7.11970386,31.3526579 L7.11970386,31.3526579 Z" id="Shape" fill="url(#radialGradient-8)"></path>
                            <path d="M2.86128071,25.8613252 C2.86128071,26.4773147 3.36514527,26.9816445 3.98160006,26.9816445 L12.14067,26.9816445 C12.7566595,26.9816445 13.2609893,26.4773147 13.2609893,25.8613252 L13.2609893,25.8613252 C13.2609893,25.2448704 12.7566595,24.7405406 12.14067,24.7405406 L3.9820653,24.7405406 C3.36514527,24.7405406 2.86128071,25.2448704 2.86128071,25.8613252 L2.86128071,25.8613252 Z" id="Shape" fill="url(#radialGradient-9)"></path>
                            <path d="M2.86128071,14.4743584 C2.86128071,15.0908132 3.36514527,15.595143 3.98160006,15.595143 L12.14067,15.595143 C12.7566595,15.595143 13.2609893,15.0908132 13.2609893,14.4743584 L13.2609893,14.4743584 C13.2609893,13.8583689 12.7566595,13.3535738 12.14067,13.3535738 L3.9820653,13.3535738 C3.36514527,13.3540391 2.86128071,13.8583689 2.86128071,14.4743584 L2.86128071,14.4743584 Z" id="Shape" fill="url(#radialGradient-10)"></path>
                        </g>
                    </g>
                </g>
            </g>
        </g>
    </g>
</svg>