<?xml version="1.0" encoding="UTF-8"?>
<svg width="47px" height="80px" viewBox="0 0 47 80" version="1.1" xmlns="http://www.w3.org/2000/svg" xmlns:xlink="http://www.w3.org/1999/xlink">
    <!-- Generator: sketchtool 46.1 (44463) - http://www.bohemiancoding.com/sketch -->
    <title>A54F7F13-577F-460F-8B29-0FF5EE59C116</title>
    <desc>Created with sketchtool.</desc>
    <defs>
        <radialGradient cx="0%" cy="3.17686299%" fx="0%" fy="3.17686299%" r="139.193103%" gradientTransform="translate(0.000000,0.031769),scale(1.000000,0.581144),rotate(59.027328),translate(-0.000000,-0.031769)" id="radialGradient-1">
            <stop stop-color="#4FC3F7" offset="0%"></stop>
            <stop stop-color="#AB5CA4" offset="49.4937365%"></stop>
            <stop stop-color="#FF512F" offset="100%"></stop>
        </radialGradient>
        <path d="M0.931707317,72.302439 C0.931707317,74.2536585 2.63902439,76.4487805 3.37073171,76.9365854 C7.27317073,78.8878049 12.5170732,79.7414634 15.8097561,79.7414634 C31.0536585,79.7414634 46.7853659,69.2536585 46.7853659,52.5463415 C46.7853659,40.595122 36.6634146,33.8878049 29.7121951,32.9121951 C33.9804878,30.3512195 41.0536585,24.3756098 41.0536585,16.4487805 C41.0536585,6.44878049 31.297561,0.83902439 25.0780488,0.83902439 C15.5658537,0.83902439 8.61463415,7.05853659 4.83414634,12.6682927 C4.83414634,13.7658537 5.56585366,15.3512195 6.29756098,15.3512195 C7.39512195,14.497561 12.2731707,7.30243902 19.9560976,7.30243902 C26.9073171,7.30243902 31.9073171,12.1804878 31.9073171,18.6439024 C31.9073171,29.1317073 22.6390244,34.497561 12.8829268,36.6926829 C12.6390244,37.0585366 12.6390244,37.4243902 12.6390244,37.9121951 C12.6390244,38.8878049 12.8829268,39.7414634 13.3707317,40.3512195 C14.8341463,39.9853659 18.1268293,38.7658537 20.6878049,38.7658537 C28.7365854,38.7658537 36.297561,46.0829268 36.297561,55.9609756 C36.297561,69.9853659 28.3707317,74.8634146 21.9073171,74.8634146 C18.6146341,74.8634146 15.2,74.1317073 12.8829268,71.8146341 C10.9317073,69.8634146 9.46829268,66.4487805 6.05365854,66.4487805 C3.37073171,66.4487805 0.931707317,68.7658537 0.931707317,72.302439 Z" id="path-2"></path>
    </defs>
    <g id="Page-2" stroke="none" stroke-width="1" fill="none" fill-rule="evenodd">
        <g id="Landing-page-1" transform="translate(-1168.000000, -1068.000000)">
            <g id="Features" transform="translate(65.000000, 795.000000)">
                <g id="Зарабатывайте" transform="translate(800.000000, 93.000000)">
                    <g id="Bitmap-+-Rectangle-7-Mask" transform="translate(303.000000, 180.000000)">
                        <g>
                            <mask id="mask-3" fill="white">
                                <use xlink:href="#path-2"></use>
                            </mask>
                            <use id="Mask" fill-opacity="0.819999993" fill="url(#radialGradient-1)" xlink:href="#path-2"></use>
                            <rect id="Rectangle-7" fill="#FFFFFF" opacity="0.4" mask="url(#mask-3)" x="-17.5609756" y="-3.90243902" width="72.195122" height="97.5609756"></rect>
                        </g>
                    </g>
                </g>
            </g>
        </g>
    </g>
</svg>