<svg width="14" height="13" viewBox="0 0 14 13" xmlns="http://www.w3.org/2000/svg"><title>HOUSE</title><path d="M11.692 6.363a.395.395 0 0 0-.403.399v5.441H8.427V9.981a.396.396 0 0 0-.388-.39h-2.07a.406.406 0 0 0-.41.39v2.222H2.705v-5.26a.393.393 0 0 0-.404-.385.39.39 0 0 0-.388.385v5.659c0 .21.176.384.388.384H5.97a.39.39 0 0 0 .389-.384V10.38h1.276v2.222c0 .21.176.384.404.384h3.653a.39.39 0 0 0 .389-.384v-5.84a.392.392 0 0 0-.389-.399zm2.194.31L10.702 3.52V1.37a.4.4 0 0 0-.412-.4.391.391 0 0 0-.389.397V2.73L7.276.124A.388.388 0 0 0 7.004 0a.401.401 0 0 0-.286.124L.123 6.63c-.159.156-.17.406 0 .55.146.166.399.155.557 0L7.004.955l6.31 6.283a.393.393 0 0 0 .286.102c.11 0 .205-.037.286-.102a.407.407 0 0 0 0-.565z" fill="#FFF" fill-rule="evenodd"/></svg>